<svg width="789px" height="194px"
 viewBox="0.00 0.00 788.80 193.80" xmlns="http://www.w3.org/2000/svg" xmlns:xlink="http://www.w3.org/1999/xlink">
<g id="graph0" class="graph" transform="scale(1.0 1.0) rotate(0) translate(14.4 179.4)">
<title>com.google.android.apps.santatracker.di.AppComponent → com.google.android.apps.santatracker.di.AndroidModule_ContributeSantaMessagingService$santa_tracker_debug.SantaMessagingServiceSubcomponent</title>
<polygon fill="white" stroke="none" points="-14.4,14.4 -14.4,-179.4 774.4,-179.4 774.4,14.4 -14.4,14.4"/>
<text text-anchor="middle" x="380" y="-7.8" font-family="Times New Roman,serif" font-size="14.00">AppComponent → AndroidModule_ContributeSantaMessagingService$santa_tracker_debug.SantaMessagingServiceSubcomponent</text>
<g id="clust1" class="cluster"><title>cluster_Entry Points</title>
<polygon fill="none" stroke="black" points="277,-31 277,-106 483,-106 483,-31 277,-31"/>
<text text-anchor="middle" x="320" y="-90.8" font-family="Times New Roman,serif" font-size="14.00">Entry Points</text>
</g>
<g id="clust2" class="cluster"><title>cluster_Dependency Graph</title>
<polygon fill="none" stroke="black" points="318.2,-114 318.2,-157 442.8,-157 442.8,-114 318.2,-114"/>
<text text-anchor="middle" x="380.7" y="-141.8" font-family="Times New Roman,serif" font-size="14.00">Dependency Graph</text>
</g>
<!-- 107872c3&#45;f7b6&#45;4efc&#45;8ec6&#45;c34e93a18605 -->
<g id="node1" class="node"><title>107872c3&#45;f7b6&#45;4efc&#45;8ec6&#45;c34e93a18605</title>
<polygon fill="turquoise" stroke="turquoise" stroke-width="2" points="475,-75 285,-75 285,-71 281,-71 281,-67 285,-67 285,-47 281,-47 281,-43 285,-43 285,-39 475,-39 475,-75"/>
<polyline fill="none" stroke="turquoise" stroke-width="2" points="285,-71 289,-71 289,-67 285,-67 "/>
<polyline fill="none" stroke="turquoise" stroke-width="2" points="285,-47 289,-47 289,-43 285,-43 "/>
<text text-anchor="middle" x="380" y="-53.3" font-family="Times New Roman,serif" font-size="14.00">inject (SantaMessagingService)</text>
</g>
<!-- bc2930eb&#45;1e6a&#45;44e2&#45;8741&#45;9215baa4c16a -->
</g>
</svg>
