<svg width="1184px" height="182px"
 viewBox="0.00 0.00 1183.80 181.80" xmlns="http://www.w3.org/2000/svg" xmlns:xlink="http://www.w3.org/1999/xlink">
<g id="graph0" class="graph" transform="scale(1.0 1.0) rotate(0) translate(14.4 167.4)">
<title>com.google.samples.apps.iosched.di.AppComponent → com.google.samples.apps.iosched.di.ActivityBindingModule_MainActivity$mobile_debug.MainActivitySubcomponent → com.google.samples.apps.iosched.ui.codelabs.CodelabsModule_ContributeCodelabsFragment$mobile_debug.CodelabsFragmentSubcomponent</title>
<polygon fill="white" stroke="none" points="-14.4,14.4 -14.4,-167.4 1169.4,-167.4 1169.4,14.4 -14.4,14.4"/>
<text text-anchor="middle" x="577.5" y="-7.8" font-family="Times New Roman,serif" font-size="14.00">AppComponent → ActivityBindingModule_MainActivity$mobile_debug.MainActivitySubcomponent → CodelabsModule_ContributeCodelabsFragment$mobile_debug.CodelabsFragmentSubcomponent</text>
<g id="clust1" class="cluster"><title>cluster_Entry Points</title>
<polygon fill="none" stroke="black" points="366.5,-40 366.5,-115 546.5,-115 546.5,-40 366.5,-40"/>
<text text-anchor="middle" x="409.5" y="-99.8" font-family="Times New Roman,serif" font-size="14.00">Entry Points</text>
</g>
<g id="clust2" class="cluster"><title>cluster_Dependency Graph</title>
<polygon fill="none" stroke="black" points="566.5,-31 566.5,-145 788.5,-145 788.5,-31 566.5,-31"/>
<text text-anchor="middle" x="629" y="-129.8" font-family="Times New Roman,serif" font-size="14.00">Dependency Graph</text>
</g>
<!-- b344a084&#45;5343&#45;4ed6&#45;8f50&#45;3713a86fa196 -->
<g id="node1" class="node"><title>b344a084&#45;5343&#45;4ed6&#45;8f50&#45;3713a86fa196</title>
<polygon fill="turquoise" stroke="turquoise" stroke-width="2" points="538.5,-84 374.5,-84 374.5,-80 370.5,-80 370.5,-76 374.5,-76 374.5,-56 370.5,-56 370.5,-52 374.5,-52 374.5,-48 538.5,-48 538.5,-84"/>
<polyline fill="none" stroke="turquoise" stroke-width="2" points="374.5,-80 378.5,-80 378.5,-76 374.5,-76 "/>
<polyline fill="none" stroke="turquoise" stroke-width="2" points="374.5,-56 378.5,-56 378.5,-52 374.5,-52 "/>
<text text-anchor="middle" x="456.5" y="-62.3" font-family="Times New Roman,serif" font-size="14.00">inject (CodelabsFragment)</text>
</g>
<!-- e9286ec9&#45;ca07&#45;4e84&#45;b660&#45;379f402d4c0d -->
<g id="node3" class="node"><title>e9286ec9&#45;ca07&#45;4e84&#45;b660&#45;379f402d4c0d</title>
<polygon fill="coral" stroke="coral" points="780.5,-92.5 574.5,-92.5 574.5,-39.5 780.5,-39.5 780.5,-92.5"/>
<text text-anchor="middle" x="677.5" y="-77.3" font-family="Times New Roman,serif" font-size="14.00">@Named(&quot;tagViewPool&quot;)</text>
<text text-anchor="middle" x="677.5" y="-62.3" font-family="Times New Roman,serif" font-size="14.00">@FragmentScoped</text>
<text text-anchor="middle" x="677.5" y="-47.3" font-family="Times New Roman,serif" font-size="14.00">RecyclerView.RecycledViewPool</text>
</g>
<!-- b344a084&#45;5343&#45;4ed6&#45;8f50&#45;3713a86fa196&#45;&gt;e9286ec9&#45;ca07&#45;4e84&#45;b660&#45;379f402d4c0d -->
<g id="edge1" class="edge"><title>b344a084&#45;5343&#45;4ed6&#45;8f50&#45;3713a86fa196&#45;&gt;e9286ec9&#45;ca07&#45;4e84&#45;b660&#45;379f402d4c0d</title>
<path fill="none" stroke="black" d="M538.736,-66C547.048,-66 555.593,-66 564.161,-66"/>
<polygon fill="black" stroke="black" points="564.218,-69.5001 574.218,-66 564.218,-62.5001 564.218,-69.5001"/>
</g>
<!-- 2c6f8cb6&#45;e929&#45;4a7f&#45;8388&#45;11ba87815331 -->
</g>
</svg>
