<svg width="1319px" height="194px"
 viewBox="0.00 0.00 1318.80 193.80" xmlns="http://www.w3.org/2000/svg" xmlns:xlink="http://www.w3.org/1999/xlink">
<g id="graph0" class="graph" transform="scale(1.0 1.0) rotate(0) translate(14.4 179.4)">
<title>com.google.samples.apps.iosched.di.AppComponent → com.google.samples.apps.iosched.di.ActivityBindingModule_MainActivity$mobile_debug.MainActivitySubcomponent → com.google.samples.apps.iosched.ui.sessiondetail.SessionFeedbackModule_ContributeSessionFeedbackFragment$mobile_debug.SessionFeedbackFragmentSubcomponent</title>
<polygon fill="white" stroke="none" points="-14.4,14.4 -14.4,-179.4 1304.4,-179.4 1304.4,14.4 -14.4,14.4"/>
<text text-anchor="middle" x="645" y="-7.8" font-family="Times New Roman,serif" font-size="14.00">AppComponent → ActivityBindingModule_MainActivity$mobile_debug.MainActivitySubcomponent → SessionFeedbackModule_ContributeSessionFeedbackFragment$mobile_debug.SessionFeedbackFragmentSubcomponent</text>
<g id="clust1" class="cluster"><title>cluster_Entry Points</title>
<polygon fill="none" stroke="black" points="532.5,-31 532.5,-106 757.5,-106 757.5,-31 532.5,-31"/>
<text text-anchor="middle" x="575.5" y="-90.8" font-family="Times New Roman,serif" font-size="14.00">Entry Points</text>
</g>
<g id="clust2" class="cluster"><title>cluster_Dependency Graph</title>
<polygon fill="none" stroke="black" points="583.2,-114 583.2,-157 707.8,-157 707.8,-114 583.2,-114"/>
<text text-anchor="middle" x="645.7" y="-141.8" font-family="Times New Roman,serif" font-size="14.00">Dependency Graph</text>
</g>
<!-- 2320b485&#45;813e&#45;45d0&#45;9d53&#45;437a13aa98a7 -->
<g id="node1" class="node"><title>2320b485&#45;813e&#45;45d0&#45;9d53&#45;437a13aa98a7</title>
<polygon fill="turquoise" stroke="turquoise" stroke-width="2" points="749.5,-75 540.5,-75 540.5,-71 536.5,-71 536.5,-67 540.5,-67 540.5,-47 536.5,-47 536.5,-43 540.5,-43 540.5,-39 749.5,-39 749.5,-75"/>
<polyline fill="none" stroke="turquoise" stroke-width="2" points="540.5,-71 544.5,-71 544.5,-67 540.5,-67 "/>
<polyline fill="none" stroke="turquoise" stroke-width="2" points="540.5,-47 544.5,-47 544.5,-43 540.5,-43 "/>
<text text-anchor="middle" x="645" y="-53.3" font-family="Times New Roman,serif" font-size="14.00">inject (SessionFeedbackFragment)</text>
</g>
<!-- 7daa510b&#45;5481&#45;486e&#45;a886&#45;ce102e556856 -->
</g>
</svg>
