<svg width="1234px" height="194px"
 viewBox="0.00 0.00 1233.80 193.80" xmlns="http://www.w3.org/2000/svg" xmlns:xlink="http://www.w3.org/1999/xlink">
<g id="graph0" class="graph" transform="scale(1.0 1.0) rotate(0) translate(14.4 179.4)">
<title>com.google.samples.apps.iosched.di.AppComponent → com.google.samples.apps.iosched.di.ActivityBindingModule_MainActivity$mobile_debug.MainActivitySubcomponent → com.google.samples.apps.iosched.ui.schedule.ScheduleModule_ContributeScheduleFilterFragment$mobile_debug.ScheduleFilterFragmentSubcomponent</title>
<polygon fill="white" stroke="none" points="-14.4,14.4 -14.4,-179.4 1219.4,-179.4 1219.4,14.4 -14.4,14.4"/>
<text text-anchor="middle" x="602.5" y="-7.8" font-family="Times New Roman,serif" font-size="14.00">AppComponent → ActivityBindingModule_MainActivity$mobile_debug.MainActivitySubcomponent → ScheduleModule_ContributeScheduleFilterFragment$mobile_debug.ScheduleFilterFragmentSubcomponent</text>
<g id="clust1" class="cluster"><title>cluster_Entry Points</title>
<polygon fill="none" stroke="black" points="499,-31 499,-106 706,-106 706,-31 499,-31"/>
<text text-anchor="middle" x="542" y="-90.8" font-family="Times New Roman,serif" font-size="14.00">Entry Points</text>
</g>
<g id="clust2" class="cluster"><title>cluster_Dependency Graph</title>
<polygon fill="none" stroke="black" points="540.7,-114 540.7,-157 665.3,-157 665.3,-114 540.7,-114"/>
<text text-anchor="middle" x="603.2" y="-141.8" font-family="Times New Roman,serif" font-size="14.00">Dependency Graph</text>
</g>
<!-- adfd62ae&#45;965a&#45;4381&#45;9a83&#45;8ddc85feebe6 -->
<g id="node1" class="node"><title>adfd62ae&#45;965a&#45;4381&#45;9a83&#45;8ddc85feebe6</title>
<polygon fill="turquoise" stroke="turquoise" stroke-width="2" points="698,-75 507,-75 507,-71 503,-71 503,-67 507,-67 507,-47 503,-47 503,-43 507,-43 507,-39 698,-39 698,-75"/>
<polyline fill="none" stroke="turquoise" stroke-width="2" points="507,-71 511,-71 511,-67 507,-67 "/>
<polyline fill="none" stroke="turquoise" stroke-width="2" points="507,-47 511,-47 511,-43 507,-43 "/>
<text text-anchor="middle" x="602.5" y="-53.3" font-family="Times New Roman,serif" font-size="14.00">inject (ScheduleFilterFragment)</text>
</g>
<!-- 1f719c56&#45;68b3&#45;441c&#45;ae4a&#45;52958ca8e5d7 -->
</g>
</svg>
