<svg width="815px" height="194px"
 viewBox="0.00 0.00 814.80 193.80" xmlns="http://www.w3.org/2000/svg" xmlns:xlink="http://www.w3.org/1999/xlink">
<g id="graph0" class="graph" transform="scale(1.0 1.0) rotate(0) translate(14.4 179.4)">
<title>com.google.android.apps.santatracker.di.AppComponent → com.google.android.apps.santatracker.di.AndroidModule_ContributeWebSceneActivityPortrait$santa_tracker_debug.WebSceneActivityPortraitSubcomponent</title>
<polygon fill="white" stroke="none" points="-14.4,14.4 -14.4,-179.4 800.4,-179.4 800.4,14.4 -14.4,14.4"/>
<text text-anchor="middle" x="393" y="-7.8" font-family="Times New Roman,serif" font-size="14.00">AppComponent → AndroidModule_ContributeWebSceneActivityPortrait$santa_tracker_debug.WebSceneActivityPortraitSubcomponent</text>
<g id="clust1" class="cluster"><title>cluster_Entry Points</title>
<polygon fill="none" stroke="black" points="283,-31 283,-106 503,-106 503,-31 283,-31"/>
<text text-anchor="middle" x="326" y="-90.8" font-family="Times New Roman,serif" font-size="14.00">Entry Points</text>
</g>
<g id="clust2" class="cluster"><title>cluster_Dependency Graph</title>
<polygon fill="none" stroke="black" points="331.2,-114 331.2,-157 455.8,-157 455.8,-114 331.2,-114"/>
<text text-anchor="middle" x="393.7" y="-141.8" font-family="Times New Roman,serif" font-size="14.00">Dependency Graph</text>
</g>
<!-- b6e6aec9&#45;7157&#45;4a9e&#45;b771&#45;7e79110297f4 -->
<g id="node1" class="node"><title>b6e6aec9&#45;7157&#45;4a9e&#45;b771&#45;7e79110297f4</title>
<polygon fill="turquoise" stroke="turquoise" stroke-width="2" points="495,-75 291,-75 291,-71 287,-71 287,-67 291,-67 291,-47 287,-47 287,-43 291,-43 291,-39 495,-39 495,-75"/>
<polyline fill="none" stroke="turquoise" stroke-width="2" points="291,-71 295,-71 295,-67 291,-67 "/>
<polyline fill="none" stroke="turquoise" stroke-width="2" points="291,-47 295,-47 295,-43 291,-43 "/>
<text text-anchor="middle" x="393" y="-53.3" font-family="Times New Roman,serif" font-size="14.00">inject (WebSceneActivityPortrait)</text>
</g>
<!-- 47ed8374&#45;bc56&#45;4c0a&#45;b42b&#45;36c3a92720d2 -->
</g>
</svg>
