<svg width="1357px" height="165px"
 viewBox="0.00 0.00 1356.80 164.80" xmlns="http://www.w3.org/2000/svg" xmlns:xlink="http://www.w3.org/1999/xlink">
<g id="graph0" class="graph" transform="scale(1.0 1.0) rotate(0) translate(14.4 150.4)">
<title>com.google.samples.apps.iosched.di.AppComponent → com.google.samples.apps.iosched.di.ActivityBindingModule_MainActivity$mobile_debug.MainActivitySubcomponent → com.google.samples.apps.iosched.ui.reservation.ReservationModule_ContributeSwapReservationDialogFragment$mobile_debug.SwapReservationDialogFragmentSubcomponent</title>
<polygon fill="white" stroke="none" points="-14.4,14.4 -14.4,-150.4 1342.4,-150.4 1342.4,14.4 -14.4,14.4"/>
<text text-anchor="middle" x="664" y="-7.8" font-family="Times New Roman,serif" font-size="14.00">AppComponent → ActivityBindingModule_MainActivity$mobile_debug.MainActivitySubcomponent → ReservationModule_ContributeSwapReservationDialogFragment$mobile_debug.SwapReservationDialogFragmentSubcomponent</text>
<g id="clust1" class="cluster"><title>cluster_Entry Points</title>
<polygon fill="none" stroke="black" points="448,-31 448,-106 709,-106 709,-31 448,-31"/>
<text text-anchor="middle" x="491" y="-90.8" font-family="Times New Roman,serif" font-size="14.00">Entry Points</text>
</g>
<g id="clust2" class="cluster"><title>cluster_Dependency Graph</title>
<polygon fill="none" stroke="black" points="729,-31 729,-128 880,-128 880,-31 729,-31"/>
<text text-anchor="middle" x="791.5" y="-112.8" font-family="Times New Roman,serif" font-size="14.00">Dependency Graph</text>
</g>
<!-- 39ac6573&#45;500f&#45;42fe&#45;92c5&#45;2e64a2225e46 -->
<g id="node1" class="node"><title>39ac6573&#45;500f&#45;42fe&#45;92c5&#45;2e64a2225e46</title>
<polygon fill="turquoise" stroke="turquoise" stroke-width="2" points="701,-75 456,-75 456,-71 452,-71 452,-67 456,-67 456,-47 452,-47 452,-43 456,-43 456,-39 701,-39 701,-75"/>
<polyline fill="none" stroke="turquoise" stroke-width="2" points="456,-71 460,-71 460,-67 456,-67 "/>
<polyline fill="none" stroke="turquoise" stroke-width="2" points="456,-47 460,-47 460,-43 456,-43 "/>
<text text-anchor="middle" x="578.5" y="-53.3" font-family="Times New Roman,serif" font-size="14.00">inject (SwapReservationDialogFragment)</text>
</g>
<!-- dcffb337&#45;4c6e&#45;4511&#45;a6d1&#45;f4212602fdf6 -->
<g id="node3" class="node"><title>dcffb337&#45;4c6e&#45;4511&#45;a6d1&#45;f4212602fdf6</title>
<polygon fill="turquoise" stroke="turquoise" points="872,-75 737,-75 737,-39 872,-39 872,-75"/>
<text text-anchor="middle" x="804.5" y="-53.3" font-family="Times New Roman,serif" font-size="14.00">SwapActionUseCase</text>
</g>
<!-- 39ac6573&#45;500f&#45;42fe&#45;92c5&#45;2e64a2225e46&#45;&gt;dcffb337&#45;4c6e&#45;4511&#45;a6d1&#45;f4212602fdf6 -->
<g id="edge1" class="edge"><title>39ac6573&#45;500f&#45;42fe&#45;92c5&#45;2e64a2225e46&#45;&gt;dcffb337&#45;4c6e&#45;4511&#45;a6d1&#45;f4212602fdf6</title>
<path fill="none" stroke="black" d="M701.005,-57C709.78,-57 718.476,-57 726.876,-57"/>
<polygon fill="black" stroke="black" points="726.961,-60.5001 736.961,-57 726.961,-53.5001 726.961,-60.5001"/>
</g>
<!-- 1c86f15b&#45;2212&#45;4ca8&#45;9b43&#45;8cf727e04d6c -->
</g>
</svg>
