<svg width="1333px" height="165px"
 viewBox="0.00 0.00 1332.80 164.80" xmlns="http://www.w3.org/2000/svg" xmlns:xlink="http://www.w3.org/1999/xlink">
<g id="graph0" class="graph" transform="scale(1.0 1.0) rotate(0) translate(14.4 150.4)">
<title>com.google.samples.apps.iosched.di.AppComponent → com.google.samples.apps.iosched.di.ActivityBindingModule_MainActivity$mobile_debug.MainActivitySubcomponent → com.google.samples.apps.iosched.ui.schedule.ScheduleModule_ContributeScheduleUiHintsDialogFragment$mobile_debug.ScheduleUiHintsDialogFragmentSubcomponent</title>
<polygon fill="white" stroke="none" points="-14.4,14.4 -14.4,-150.4 1318.4,-150.4 1318.4,14.4 -14.4,14.4"/>
<text text-anchor="middle" x="652" y="-7.8" font-family="Times New Roman,serif" font-size="14.00">AppComponent → ActivityBindingModule_MainActivity$mobile_debug.MainActivitySubcomponent → ScheduleModule_ContributeScheduleUiHintsDialogFragment$mobile_debug.ScheduleUiHintsDialogFragmentSubcomponent</text>
<g id="clust1" class="cluster"><title>cluster_Entry Points</title>
<polygon fill="none" stroke="black" points="392.5,-31 392.5,-106 648.5,-106 648.5,-31 392.5,-31"/>
<text text-anchor="middle" x="435.5" y="-90.8" font-family="Times New Roman,serif" font-size="14.00">Entry Points</text>
</g>
<g id="clust2" class="cluster"><title>cluster_Dependency Graph</title>
<polygon fill="none" stroke="black" points="668.5,-31 668.5,-128 911.5,-128 911.5,-31 668.5,-31"/>
<text text-anchor="middle" x="731" y="-112.8" font-family="Times New Roman,serif" font-size="14.00">Dependency Graph</text>
</g>
<!-- 68e18934&#45;866d&#45;45f3&#45;b0e0&#45;b5e85a17f0d2 -->
<g id="node1" class="node"><title>68e18934&#45;866d&#45;45f3&#45;b0e0&#45;b5e85a17f0d2</title>
<polygon fill="turquoise" stroke="turquoise" stroke-width="2" points="640.5,-75 400.5,-75 400.5,-71 396.5,-71 396.5,-67 400.5,-67 400.5,-47 396.5,-47 396.5,-43 400.5,-43 400.5,-39 640.5,-39 640.5,-75"/>
<polyline fill="none" stroke="turquoise" stroke-width="2" points="400.5,-71 404.5,-71 404.5,-67 400.5,-67 "/>
<polyline fill="none" stroke="turquoise" stroke-width="2" points="400.5,-47 404.5,-47 404.5,-43 400.5,-43 "/>
<text text-anchor="middle" x="520.5" y="-53.3" font-family="Times New Roman,serif" font-size="14.00">inject (ScheduleUiHintsDialogFragment)</text>
</g>
<!-- 2971dcbe&#45;d507&#45;4854&#45;a448&#45;c98a3341d89f -->
<g id="node3" class="node"><title>2971dcbe&#45;d507&#45;4854&#45;a448&#45;c98a3341d89f</title>
<polygon fill="turquoise" stroke="turquoise" points="903.5,-75 676.5,-75 676.5,-39 903.5,-39 903.5,-75"/>
<text text-anchor="middle" x="790" y="-53.3" font-family="Times New Roman,serif" font-size="14.00">MarkScheduleUiHintsShownUseCase</text>
</g>
<!-- 68e18934&#45;866d&#45;45f3&#45;b0e0&#45;b5e85a17f0d2&#45;&gt;2971dcbe&#45;d507&#45;4854&#45;a448&#45;c98a3341d89f -->
<g id="edge1" class="edge"><title>68e18934&#45;866d&#45;45f3&#45;b0e0&#45;b5e85a17f0d2&#45;&gt;2971dcbe&#45;d507&#45;4854&#45;a448&#45;c98a3341d89f</title>
<path fill="none" stroke="black" d="M640.777,-57C649.196,-57 657.693,-57 666.131,-57"/>
<polygon fill="black" stroke="black" points="666.386,-60.5001 676.386,-57 666.386,-53.5001 666.386,-60.5001"/>
</g>
<!-- 890b2b88&#45;5d2d&#45;4253&#45;8f3b&#45;4966b378ce3b -->
</g>
</svg>
