<svg width="1338px" height="194px"
 viewBox="0.00 0.00 1337.80 193.80" xmlns="http://www.w3.org/2000/svg" xmlns:xlink="http://www.w3.org/1999/xlink">
<g id="graph0" class="graph" transform="scale(1.0 1.0) rotate(0) translate(14.4 179.4)">
<title>com.google.samples.apps.iosched.di.AppComponent → com.google.samples.apps.iosched.di.ActivityBindingModule_OnboardingActivity$mobile_debug.OnboardingActivitySubcomponent → com.google.samples.apps.iosched.ui.signin.SignInDialogModule_ContributeSignOutDialogFragment$mobile_debug.SignOutDialogFragmentSubcomponent</title>
<polygon fill="white" stroke="none" points="-14.4,14.4 -14.4,-179.4 1323.4,-179.4 1323.4,14.4 -14.4,14.4"/>
<text text-anchor="middle" x="654.5" y="-7.8" font-family="Times New Roman,serif" font-size="14.00">AppComponent → ActivityBindingModule_OnboardingActivity$mobile_debug.OnboardingActivitySubcomponent → SignInDialogModule_ContributeSignOutDialogFragment$mobile_debug.SignOutDialogFragmentSubcomponent</text>
<g id="clust1" class="cluster"><title>cluster_Entry Points</title>
<polygon fill="none" stroke="black" points="550,-31 550,-106 759,-106 759,-31 550,-31"/>
<text text-anchor="middle" x="593" y="-90.8" font-family="Times New Roman,serif" font-size="14.00">Entry Points</text>
</g>
<g id="clust2" class="cluster"><title>cluster_Dependency Graph</title>
<polygon fill="none" stroke="black" points="592.7,-114 592.7,-157 717.3,-157 717.3,-114 592.7,-114"/>
<text text-anchor="middle" x="655.2" y="-141.8" font-family="Times New Roman,serif" font-size="14.00">Dependency Graph</text>
</g>
<!-- 7a28db69&#45;7927&#45;492b&#45;a677&#45;07dd35a22163 -->
<g id="node1" class="node"><title>7a28db69&#45;7927&#45;492b&#45;a677&#45;07dd35a22163</title>
<polygon fill="turquoise" stroke="turquoise" stroke-width="2" points="751,-75 558,-75 558,-71 554,-71 554,-67 558,-67 558,-47 554,-47 554,-43 558,-43 558,-39 751,-39 751,-75"/>
<polyline fill="none" stroke="turquoise" stroke-width="2" points="558,-71 562,-71 562,-67 558,-67 "/>
<polyline fill="none" stroke="turquoise" stroke-width="2" points="558,-47 562,-47 562,-43 558,-43 "/>
<text text-anchor="middle" x="654.5" y="-53.3" font-family="Times New Roman,serif" font-size="14.00">inject (SignOutDialogFragment)</text>
</g>
<!-- 67d4ccb1&#45;5c44&#45;4b6a&#45;866c&#45;d2f3ca9321d8 -->
</g>
</svg>
