<svg width="2474px" height="1802px"
 viewBox="0.00 0.00 2473.80 1801.80" xmlns="http://www.w3.org/2000/svg" xmlns:xlink="http://www.w3.org/1999/xlink">
<g id="graph0" class="graph" transform="scale(1.0 1.0) rotate(0) translate(14.4 1787.4)">
<title>com.google.samples.apps.iosched.di.AppComponent → com.google.samples.apps.iosched.di.ActivityBindingModule_MainActivity$mobile_debug.MainActivitySubcomponent → com.google.samples.apps.iosched.ui.info.InfoModule_ContributeInfoFragment$mobile_debug.InfoFragmentSubcomponent</title>
<polygon fill="white" stroke="none" points="-14.4,14.4 -14.4,-1787.4 2459.4,-1787.4 2459.4,14.4 -14.4,14.4"/>
<text text-anchor="middle" x="532.5" y="-7.8" font-family="Times New Roman,serif" font-size="14.00">AppComponent → ActivityBindingModule_MainActivity$mobile_debug.MainActivitySubcomponent → InfoModule_ContributeInfoFragment$mobile_debug.InfoFragmentSubcomponent</text>
<g id="clust1" class="cluster"><title>cluster_Entry Points</title>
<polygon fill="none" stroke="black" points="8,-849 8,-924 158,-924 158,-849 8,-849"/>
<text text-anchor="middle" x="51" y="-908.8" font-family="Times New Roman,serif" font-size="14.00">Entry Points</text>
</g>
<g id="clust2" class="cluster"><title>cluster_Dependency Graph</title>
<polygon fill="none" stroke="black" points="179,-31 179,-1765 1758,-1765 1758,-31 179,-31"/>
<text text-anchor="middle" x="241.5" y="-1749.8" font-family="Times New Roman,serif" font-size="14.00">Dependency Graph</text>
</g>
<g id="clust3" class="cluster"><title>cluster_Map&lt;Class&lt;?&gt;, Provider&lt;AndroidInjector.Factory&lt;?&gt;&gt;&gt;</title>
<path fill="none" stroke="black" d="M454,-39C454,-39 1421,-39 1421,-39 1427,-39 1433,-45 1433,-51 1433,-51 1433,-1722 1433,-1722 1433,-1728 1427,-1734 1421,-1734 1421,-1734 454,-1734 454,-1734 448,-1734 442,-1728 442,-1722 442,-1722 442,-51 442,-51 442,-45 448,-39 454,-39"/>
<text text-anchor="middle" x="937.5" y="-1718.8" font-family="Times New Roman,serif" font-size="14.00">Map&lt;Class&lt;?&gt;, Provider&lt;AndroidInjector.Factory&lt;?&gt;&gt;&gt;</text>
</g>
<g id="clust4" class="cluster"><title>cluster_Subcomponents</title>
<polygon fill="none" stroke="black" points="1862,-55 1862,-244 2437,-244 2437,-55 1862,-55"/>
<text text-anchor="middle" x="1916" y="-228.8" font-family="Times New Roman,serif" font-size="14.00">Subcomponents</text>
</g>
<!-- 4b879e6d&#45;3c05&#45;4088&#45;9055&#45;fd57f27fed2a -->
<g id="node1" class="node"><title>4b879e6d&#45;3c05&#45;4088&#45;9055&#45;fd57f27fed2a</title>
<polygon fill="turquoise" stroke="turquoise" stroke-width="2" points="150,-893 16,-893 16,-889 12,-889 12,-885 16,-885 16,-865 12,-865 12,-861 16,-861 16,-857 150,-857 150,-893"/>
<polyline fill="none" stroke="turquoise" stroke-width="2" points="16,-889 20,-889 20,-885 16,-885 "/>
<polyline fill="none" stroke="turquoise" stroke-width="2" points="16,-865 20,-865 20,-861 16,-861 "/>
<text text-anchor="middle" x="83" y="-871.3" font-family="Times New Roman,serif" font-size="14.00">inject (InfoFragment)</text>
</g>
<!-- 64a013ac&#45;901a&#45;4a7e&#45;9de3&#45;d7ebeb91c34e -->
<g id="node3" class="node"><title>64a013ac&#45;901a&#45;4a7e&#45;9de3&#45;d7ebeb91c34e</title>
<polygon fill="turquoise" stroke="turquoise" points="413,-893 187,-893 187,-857 413,-857 413,-893"/>
<text text-anchor="middle" x="300" y="-871.3" font-family="Times New Roman,serif" font-size="14.00">DispatchingAndroidInjector&lt;Object&gt;</text>
</g>
<!-- 4b879e6d&#45;3c05&#45;4088&#45;9055&#45;fd57f27fed2a&#45;&gt;64a013ac&#45;901a&#45;4a7e&#45;9de3&#45;d7ebeb91c34e -->
<g id="edge1" class="edge"><title>4b879e6d&#45;3c05&#45;4088&#45;9055&#45;fd57f27fed2a&#45;&gt;64a013ac&#45;901a&#45;4a7e&#45;9de3&#45;d7ebeb91c34e</title>
<path fill="none" stroke="black" d="M150.261,-875C158.688,-875 167.513,-875 176.481,-875"/>
<polygon fill="black" stroke="black" points="176.652,-878.5 186.652,-875 176.652,-871.5 176.652,-878.5"/>
</g>
<!-- e96d3282&#45;d6d2&#45;4dd2&#45;aa7e&#45;b2faf66a0673 -->
<!-- 08aaed7f&#45;c9bf&#45;4d02&#45;9a04&#45;77d972c5ee7c -->
<g id="node10" class="node"><title>08aaed7f&#45;c9bf&#45;4d02&#45;9a04&#45;77d972c5ee7c</title>
<polygon fill="turquoise" stroke="turquoise" points="793,-893 462,-893 462,-897 450,-897 450,-857 793,-857 793,-893"/>
<polyline fill="none" stroke="turquoise" points="450,-893 462,-893 "/>
<text text-anchor="middle" x="621.5" y="-871.3" font-family="Times New Roman,serif" font-size="14.00">Map&lt;Class&lt;?&gt;, Provider&lt;AndroidInjector.Factory&lt;?&gt;&gt;&gt;</text>
</g>
<!-- 64a013ac&#45;901a&#45;4a7e&#45;9de3&#45;d7ebeb91c34e&#45;&gt;08aaed7f&#45;c9bf&#45;4d02&#45;9a04&#45;77d972c5ee7c -->
<g id="edge2" class="edge"><title>64a013ac&#45;901a&#45;4a7e&#45;9de3&#45;d7ebeb91c34e&#45;&gt;08aaed7f&#45;c9bf&#45;4d02&#45;9a04&#45;77d972c5ee7c</title>
<path fill="none" stroke="black" d="M413.194,-875C421.882,-875 430.776,-875 439.76,-875"/>
<polygon fill="black" stroke="black" points="439.936,-878.5 449.936,-875 439.936,-871.5 439.936,-878.5"/>
</g>
<!-- e533003c&#45;6004&#45;414c&#45;bcec&#45;ee10d3974f09 -->
<g id="node4" class="node"><title>e533003c&#45;6004&#45;414c&#45;bcec&#45;ee10d3974f09</title>
<polygon fill="turquoise" stroke="turquoise" points="1358.5,-191 896.5,-191 896.5,-155 1358.5,-155 1358.5,-191"/>
<text text-anchor="middle" x="1127.5" y="-169.3" font-family="Times New Roman,serif" font-size="14.00">InfoFragmentsModule_ContributeEventFragment.bindAndroidInjectorFactory()</text>
</g>
<!-- 51f91e80&#45;e3cd&#45;45f6&#45;b4bf&#45;fbd2252e8379 -->
<g id="node7" class="node"><title>51f91e80&#45;e3cd&#45;45f6&#45;b4bf&#45;fbd2252e8379</title>
<polygon fill="turquoise" stroke="turquoise" points="1748,-237 1515,-237 1515,-183 1748,-183 1748,-237"/>
<text text-anchor="middle" x="1631.5" y="-221.8" font-family="Times New Roman,serif" font-size="14.00">EventFragmentSubcomponent.Factory</text>
<text text-anchor="middle" x="1631.5" y="-190.8" font-family="Times New Roman,serif" font-size="14.00">Subcomponent Creator</text>
</g>
<!-- e533003c&#45;6004&#45;414c&#45;bcec&#45;ee10d3974f09&#45;&gt;51f91e80&#45;e3cd&#45;45f6&#45;b4bf&#45;fbd2252e8379 -->
<g id="edge34" class="edge"><title>e533003c&#45;6004&#45;414c&#45;bcec&#45;ee10d3974f09&#45;&gt;51f91e80&#45;e3cd&#45;45f6&#45;b4bf&#45;fbd2252e8379</title>
<path fill="none" stroke="black" stroke-dasharray="1,5" d="M1358.56,-189.957C1408.82,-193.661 1460.2,-197.448 1504.58,-200.719"/>
<polygon fill="black" stroke="black" points="1504.59,-204.229 1514.82,-201.474 1505.1,-197.248 1504.59,-204.229"/>
<text text-anchor="middle" x="1469" y="-203.8" font-family="Times New Roman,serif" font-size="14.00">delegates</text>
</g>
<!-- 51db9833&#45;25bc&#45;43bf&#45;8667&#45;014f4391ecfd -->
<g id="node5" class="node"><title>51db9833&#45;25bc&#45;43bf&#45;8667&#45;014f4391ecfd</title>
<polygon fill="turquoise" stroke="turquoise" points="1360.5,-137 894.5,-137 894.5,-101 1360.5,-101 1360.5,-137"/>
<text text-anchor="middle" x="1127.5" y="-115.3" font-family="Times New Roman,serif" font-size="14.00">InfoFragmentsModule_ContributeTravelFragment.bindAndroidInjectorFactory()</text>
</g>
<!-- 994121ec&#45;c047&#45;48a2&#45;8f4a&#45;54b96622a991 -->
<g id="node8" class="node"><title>994121ec&#45;c047&#45;48a2&#45;8f4a&#45;54b96622a991</title>
<polygon fill="turquoise" stroke="turquoise" points="1750,-165 1513,-165 1513,-111 1750,-111 1750,-165"/>
<text text-anchor="middle" x="1631.5" y="-149.8" font-family="Times New Roman,serif" font-size="14.00">TravelFragmentSubcomponent.Factory</text>
<text text-anchor="middle" x="1631.5" y="-118.8" font-family="Times New Roman,serif" font-size="14.00">Subcomponent Creator</text>
</g>
<!-- 51db9833&#45;25bc&#45;43bf&#45;8667&#45;014f4391ecfd&#45;&gt;994121ec&#45;c047&#45;48a2&#45;8f4a&#45;54b96622a991 -->
<g id="edge36" class="edge"><title>51db9833&#45;25bc&#45;43bf&#45;8667&#45;014f4391ecfd&#45;&gt;994121ec&#45;c047&#45;48a2&#45;8f4a&#45;54b96622a991</title>
<path fill="none" stroke="black" stroke-dasharray="1,5" d="M1360.76,-127.791C1409.7,-129.643 1459.59,-131.531 1502.94,-133.172"/>
<polygon fill="black" stroke="black" points="1502.83,-136.67 1512.95,-133.551 1503.09,-129.675 1502.83,-136.67"/>
<text text-anchor="middle" x="1469" y="-136.8" font-family="Times New Roman,serif" font-size="14.00">delegates</text>
</g>
<!-- 691e972f&#45;6ec1&#45;4c11&#45;90d2&#45;7e58f388bf2c -->
<g id="node6" class="node"><title>691e972f&#45;6ec1&#45;4c11&#45;90d2&#45;7e58f388bf2c</title>
<polygon fill="turquoise" stroke="turquoise" points="1353.5,-83 901.5,-83 901.5,-47 1353.5,-47 1353.5,-83"/>
<text text-anchor="middle" x="1127.5" y="-61.3" font-family="Times New Roman,serif" font-size="14.00">InfoFragmentsModule_ContributeFaqFragment.bindAndroidInjectorFactory()</text>
</g>
<!-- ccdab7ff&#45;cbae&#45;4d72&#45;ba00&#45;a4ab9e7d9459 -->
<g id="node9" class="node"><title>ccdab7ff&#45;cbae&#45;4d72&#45;ba00&#45;a4ab9e7d9459</title>
<polygon fill="turquoise" stroke="turquoise" points="1743.5,-93 1519.5,-93 1519.5,-39 1743.5,-39 1743.5,-93"/>
<text text-anchor="middle" x="1631.5" y="-77.8" font-family="Times New Roman,serif" font-size="14.00">FaqFragmentSubcomponent.Factory</text>
<text text-anchor="middle" x="1631.5" y="-46.8" font-family="Times New Roman,serif" font-size="14.00">Subcomponent Creator</text>
</g>
<!-- 691e972f&#45;6ec1&#45;4c11&#45;90d2&#45;7e58f388bf2c&#45;&gt;ccdab7ff&#45;cbae&#45;4d72&#45;ba00&#45;a4ab9e7d9459 -->
<g id="edge38" class="edge"><title>691e972f&#45;6ec1&#45;4c11&#45;90d2&#45;7e58f388bf2c&#45;&gt;ccdab7ff&#45;cbae&#45;4d72&#45;ba00&#45;a4ab9e7d9459</title>
<path fill="none" stroke="black" stroke-dasharray="1,5" d="M1353.8,-65.4488C1407.35,-65.5555 1462.47,-65.6653 1509.28,-65.7585"/>
<polygon fill="black" stroke="black" points="1509.44,-69.2588 1519.45,-65.7788 1509.45,-62.2588 1509.44,-69.2588"/>
<text text-anchor="middle" x="1469" y="-69.8" font-family="Times New Roman,serif" font-size="14.00">delegates</text>
</g>
<!-- 1fe1ac7e&#45;dba0&#45;42ba&#45;97e8&#45;f894ce058fe0 -->
<g id="node39" class="node"><title>1fe1ac7e&#45;dba0&#45;42ba&#45;97e8&#45;f894ce058fe0</title>
<g id="a_node39"><a xlink:href="com.google.samples.apps.iosched.ui.info.InfoFragmentsModule_ContributeEventFragment.mobile_debug.EventFragmentSubcomponent.svg" xlink:title="@ChildFragmentScoped\nInfoFragmentsModule_ContributeEventFragment$mobile_debug.EventFragmentSubcomponent">
<polygon fill="cornflowerblue" stroke="cornflowerblue" points="2425,-213 1874,-213 1874,-175 2425,-175 2425,-213"/>
<text text-anchor="middle" x="2149.5" y="-197.8" font-family="Times New Roman,serif" font-size="14.00">@ChildFragmentScoped</text>
<text text-anchor="middle" x="2149.5" y="-182.8" font-family="Times New Roman,serif" font-size="14.00">InfoFragmentsModule_ContributeEventFragment$mobile_debug.EventFragmentSubcomponent</text>
</a>
</g>
</g>
<!-- 51f91e80&#45;e3cd&#45;45f6&#45;b4bf&#45;fbd2252e8379&#45;&gt;1fe1ac7e&#45;dba0&#45;42ba&#45;97e8&#45;f894ce058fe0 -->
<g id="edge35" class="edge"><title>51f91e80&#45;e3cd&#45;45f6&#45;b4bf&#45;fbd2252e8379&#45;&gt;1fe1ac7e&#45;dba0&#45;42ba&#45;97e8&#45;f894ce058fe0:w</title>
<path fill="none" stroke="black" stroke-dasharray="5,2" d="M1748.06,-199.173C1784.26,-196.544 1824.64,-194.383 1862.43,-194.046"/>
<polygon fill="black" stroke="black" points="1862.52,-197.545 1872.5,-194 1862.48,-190.545 1862.52,-197.545"/>
<text text-anchor="middle" x="1810" y="-201.8" font-family="Times New Roman,serif" font-size="14.00">subcomponent</text>
</g>
<!-- e8642cc3&#45;d3db&#45;417c&#45;82c5&#45;6bb1f4a0631d -->
<g id="node40" class="node"><title>e8642cc3&#45;d3db&#45;417c&#45;82c5&#45;6bb1f4a0631d</title>
<g id="a_node40"><a xlink:href="com.google.samples.apps.iosched.ui.info.InfoFragmentsModule_ContributeTravelFragment.mobile_debug.TravelFragmentSubcomponent.svg" xlink:title="@ChildFragmentScoped\nInfoFragmentsModule_ContributeTravelFragment$mobile_debug.TravelFragmentSubcomponent">
<polygon fill="cornflowerblue" stroke="cornflowerblue" points="2429,-157 1870,-157 1870,-119 2429,-119 2429,-157"/>
<text text-anchor="middle" x="2149.5" y="-141.8" font-family="Times New Roman,serif" font-size="14.00">@ChildFragmentScoped</text>
<text text-anchor="middle" x="2149.5" y="-126.8" font-family="Times New Roman,serif" font-size="14.00">InfoFragmentsModule_ContributeTravelFragment$mobile_debug.TravelFragmentSubcomponent</text>
</a>
</g>
</g>
<!-- 994121ec&#45;c047&#45;48a2&#45;8f4a&#45;54b96622a991&#45;&gt;e8642cc3&#45;d3db&#45;417c&#45;82c5&#45;6bb1f4a0631d -->
<g id="edge37" class="edge"><title>994121ec&#45;c047&#45;48a2&#45;8f4a&#45;54b96622a991&#45;&gt;e8642cc3&#45;d3db&#45;417c&#45;82c5&#45;6bb1f4a0631d:w</title>
<path fill="none" stroke="black" stroke-dasharray="5,2" d="M1750.14,-138C1784.69,-138 1822.79,-138 1858.5,-138"/>
<polygon fill="black" stroke="black" points="1858.5,-141.5 1868.5,-138 1858.5,-134.5 1858.5,-141.5"/>
<text text-anchor="middle" x="1810" y="-141.8" font-family="Times New Roman,serif" font-size="14.00">subcomponent</text>
</g>
<!-- fa550b88&#45;5372&#45;45e9&#45;99c6&#45;719426a9c491 -->
<g id="node41" class="node"><title>fa550b88&#45;5372&#45;45e9&#45;99c6&#45;719426a9c491</title>
<g id="a_node41"><a xlink:href="com.google.samples.apps.iosched.ui.info.InfoFragmentsModule_ContributeFaqFragment.mobile_debug.FaqFragmentSubcomponent.svg" xlink:title="@ChildFragmentScoped\nInfoFragmentsModule_ContributeFaqFragment$mobile_debug.FaqFragmentSubcomponent">
<polygon fill="cornflowerblue" stroke="cornflowerblue" points="2415.5,-101 1883.5,-101 1883.5,-63 2415.5,-63 2415.5,-101"/>
<text text-anchor="middle" x="2149.5" y="-85.8" font-family="Times New Roman,serif" font-size="14.00">@ChildFragmentScoped</text>
<text text-anchor="middle" x="2149.5" y="-70.8" font-family="Times New Roman,serif" font-size="14.00">InfoFragmentsModule_ContributeFaqFragment$mobile_debug.FaqFragmentSubcomponent</text>
</a>
</g>
</g>
<!-- ccdab7ff&#45;cbae&#45;4d72&#45;ba00&#45;a4ab9e7d9459&#45;&gt;fa550b88&#45;5372&#45;45e9&#45;99c6&#45;719426a9c491 -->
<g id="edge39" class="edge"><title>ccdab7ff&#45;cbae&#45;4d72&#45;ba00&#45;a4ab9e7d9459&#45;&gt;fa550b88&#45;5372&#45;45e9&#45;99c6&#45;719426a9c491:w</title>
<path fill="none" stroke="black" stroke-dasharray="5,2" d="M1743.79,-76.1784C1783.84,-79.0997 1829.67,-81.6016 1872.31,-81.9568"/>
<polygon fill="black" stroke="black" points="1872.49,-85.4575 1882.5,-82 1872.51,-78.4576 1872.49,-85.4575"/>
<text text-anchor="middle" x="1810" y="-85.8" font-family="Times New Roman,serif" font-size="14.00">subcomponent</text>
</g>
<!-- 08aaed7f&#45;c9bf&#45;4d02&#45;9a04&#45;77d972c5ee7c&#45;&gt;e533003c&#45;6004&#45;414c&#45;bcec&#45;ee10d3974f09 -->
<g id="edge31" class="edge"><title>08aaed7f&#45;c9bf&#45;4d02&#45;9a04&#45;77d972c5ee7c&#45;&gt;e533003c&#45;6004&#45;414c&#45;bcec&#45;ee10d3974f09</title>
<path fill="none" stroke="black" d="M625.352,-856.687C641.143,-757.757 721.115,-288.355 830,-200 846.805,-186.364 866.044,-176.465 886.472,-169.448"/>
<polygon fill="black" stroke="black" points="887.797,-172.699 896.261,-166.327 885.671,-166.029 887.797,-172.699"/>
</g>
<!-- 08aaed7f&#45;c9bf&#45;4d02&#45;9a04&#45;77d972c5ee7c&#45;&gt;51db9833&#45;25bc&#45;43bf&#45;8667&#45;014f4391ecfd -->
<g id="edge32" class="edge"><title>08aaed7f&#45;c9bf&#45;4d02&#45;9a04&#45;77d972c5ee7c&#45;&gt;51db9833&#45;25bc&#45;43bf&#45;8667&#45;014f4391ecfd</title>
<path fill="none" stroke="black" d="M624.881,-856.957C638.843,-754.059 713.496,-242.577 830,-146 878.809,-105.539 948.91,-97.6517 1008.7,-100.412"/>
<polygon fill="black" stroke="black" points="1008.78,-103.922 1018.96,-100.994 1009.18,-96.9337 1008.78,-103.922"/>
</g>
<!-- 08aaed7f&#45;c9bf&#45;4d02&#45;9a04&#45;77d972c5ee7c&#45;&gt;691e972f&#45;6ec1&#45;4c11&#45;90d2&#45;7e58f388bf2c -->
<g id="edge33" class="edge"><title>08aaed7f&#45;c9bf&#45;4d02&#45;9a04&#45;77d972c5ee7c&#45;&gt;691e972f&#45;6ec1&#45;4c11&#45;90d2&#45;7e58f388bf2c</title>
<path fill="none" stroke="black" d="M624.525,-856.688C636.861,-748.691 705.533,-196.085 830,-92 879.197,-50.8597 950.352,-43.2552 1010.63,-46.3433"/>
<polygon fill="black" stroke="black" points="1010.77,-49.8591 1020.97,-46.9822 1011.2,-42.8724 1010.77,-49.8591"/>
</g>
<!-- 16f2fcc6&#45;f3aa&#45;438f&#45;be0f&#45;cbde16744cdd -->
<g id="node11" class="node"><title>16f2fcc6&#45;f3aa&#45;438f&#45;be0f&#45;cbde16744cdd</title>
<polygon fill="turquoise" stroke="turquoise" points="1347,-245 908,-245 908,-209 1347,-209 1347,-245"/>
<text text-anchor="middle" x="1127.5" y="-223.3" font-family="Times New Roman,serif" font-size="14.00">SpeakerModule_ContributeSpeakerFragment.bindAndroidInjectorFactory()</text>
</g>
<!-- 08aaed7f&#45;c9bf&#45;4d02&#45;9a04&#45;77d972c5ee7c&#45;&gt;16f2fcc6&#45;f3aa&#45;438f&#45;be0f&#45;cbde16744cdd -->
<g id="edge24" class="edge"><title>08aaed7f&#45;c9bf&#45;4d02&#45;9a04&#45;77d972c5ee7c&#45;&gt;16f2fcc6&#45;f3aa&#45;438f&#45;be0f&#45;cbde16744cdd</title>
<path fill="none" stroke="black" d="M622.069,-856.87C621.143,-772.152 629.46,-412.737 830,-254 850.036,-238.14 873.392,-227.399 898.037,-220.391"/>
<polygon fill="black" stroke="black" points="899.133,-223.722 907.914,-217.794 897.353,-216.952 899.133,-223.722"/>
</g>
<!-- f58408dd&#45;bac9&#45;4d14&#45;91bf&#45;ba71c6f9add2 -->
<g id="node12" class="node"><title>f58408dd&#45;bac9&#45;4d14&#45;91bf&#45;ba71c6f9add2</title>
<polygon fill="turquoise" stroke="turquoise" points="1375.5,-299 879.5,-299 879.5,-263 1375.5,-263 1375.5,-299"/>
<text text-anchor="middle" x="1127.5" y="-277.3" font-family="Times New Roman,serif" font-size="14.00">ServiceBindingModule_ProvideConferenceDataService.bindAndroidInjectorFactory()</text>
</g>
<!-- 08aaed7f&#45;c9bf&#45;4d02&#45;9a04&#45;77d972c5ee7c&#45;&gt;f58408dd&#45;bac9&#45;4d14&#45;91bf&#45;ba71c6f9add2 -->
<g id="edge10" class="edge"><title>08aaed7f&#45;c9bf&#45;4d02&#45;9a04&#45;77d972c5ee7c&#45;&gt;f58408dd&#45;bac9&#45;4d14&#45;91bf&#45;ba71c6f9add2</title>
<path fill="none" stroke="black" d="M622.703,-856.809C624.681,-776.428 644.263,-450.785 830,-308 842.27,-298.568 855.725,-290.972 869.921,-284.913"/>
<polygon fill="black" stroke="black" points="871.362,-288.107 879.352,-281.15 868.767,-281.606 871.362,-288.107"/>
</g>
<!-- 57cfeb10&#45;b66c&#45;49b3&#45;83eb&#45;fb19bd68853a -->
<g id="node13" class="node"><title>57cfeb10&#45;b66c&#45;49b3&#45;83eb&#45;fb19bd68853a</title>
<polygon fill="turquoise" stroke="turquoise" points="1362.5,-353 892.5,-353 892.5,-317 1362.5,-317 1362.5,-353"/>
<text text-anchor="middle" x="1127.5" y="-331.3" font-family="Times New Roman,serif" font-size="14.00">SettingsModule_ContributeThemeSettingFragment.bindAndroidInjectorFactory()</text>
</g>
<!-- 08aaed7f&#45;c9bf&#45;4d02&#45;9a04&#45;77d972c5ee7c&#45;&gt;57cfeb10&#45;b66c&#45;49b3&#45;83eb&#45;fb19bd68853a -->
<g id="edge23" class="edge"><title>08aaed7f&#45;c9bf&#45;4d02&#45;9a04&#45;77d972c5ee7c&#45;&gt;57cfeb10&#45;b66c&#45;49b3&#45;83eb&#45;fb19bd68853a</title>
<path fill="none" stroke="black" d="M623.446,-856.985C628.47,-781.553 658.753,-489.134 830,-362 845.977,-350.139 863.853,-341.235 882.696,-334.666"/>
<polygon fill="black" stroke="black" points="883.899,-337.955 892.325,-331.534 881.733,-331.299 883.899,-337.955"/>
</g>
<!-- a9c41645&#45;53ed&#45;4287&#45;9c1c&#45;f38dc042e089 -->
<g id="node14" class="node"><title>a9c41645&#45;53ed&#45;4287&#45;9c1c&#45;f38dc042e089</title>
<polygon fill="turquoise" stroke="turquoise" points="1353,-407 902,-407 902,-371 1353,-371 1353,-407"/>
<text text-anchor="middle" x="1127.5" y="-385.3" font-family="Times New Roman,serif" font-size="14.00">ScheduleModule_ContributeScheduleFragment.bindAndroidInjectorFactory()</text>
</g>
<!-- 08aaed7f&#45;c9bf&#45;4d02&#45;9a04&#45;77d972c5ee7c&#45;&gt;a9c41645&#45;53ed&#45;4287&#45;9c1c&#45;f38dc042e089 -->
<g id="edge17" class="edge"><title>08aaed7f&#45;c9bf&#45;4d02&#45;9a04&#45;77d972c5ee7c&#45;&gt;a9c41645&#45;53ed&#45;4287&#45;9c1c&#45;f38dc042e089</title>
<path fill="none" stroke="black" d="M624.357,-856.94C632.67,-786.358 673.249,-527.556 830,-416 848.709,-402.685 869.854,-393.179 892.025,-386.56"/>
<polygon fill="black" stroke="black" points="893.233,-389.857 901.931,-383.808 891.359,-383.112 893.233,-389.857"/>
</g>
<!-- f9cdf12d&#45;7ec9&#45;46e7&#45;b292&#45;02c2ec9e3769 -->
<g id="node15" class="node"><title>f9cdf12d&#45;7ec9&#45;46e7&#45;b292&#45;02c2ec9e3769</title>
<polygon fill="turquoise" stroke="turquoise" points="1367,-461 888,-461 888,-425 1367,-425 1367,-461"/>
<text text-anchor="middle" x="1127.5" y="-439.3" font-family="Times New Roman,serif" font-size="14.00">ScheduleModule_ContributeScheduleFilterFragment.bindAndroidInjectorFactory()</text>
</g>
<!-- 08aaed7f&#45;c9bf&#45;4d02&#45;9a04&#45;77d972c5ee7c&#45;&gt;f9cdf12d&#45;7ec9&#45;46e7&#45;b292&#45;02c2ec9e3769 -->
<g id="edge18" class="edge"><title>08aaed7f&#45;c9bf&#45;4d02&#45;9a04&#45;77d972c5ee7c&#45;&gt;f9cdf12d&#45;7ec9&#45;46e7&#45;b292&#45;02c2ec9e3769</title>
<path fill="none" stroke="black" d="M625.506,-856.801C637.39,-791.273 687.607,-566.181 830,-470 844.908,-459.93 861.243,-452.1 878.341,-446.085"/>
<polygon fill="black" stroke="black" points="879.513,-449.384 887.914,-442.928 877.321,-442.736 879.513,-449.384"/>
</g>
<!-- 008b915f&#45;b4d1&#45;4495&#45;bd6b&#45;a2af94cb5025 -->
<g id="node16" class="node"><title>008b915f&#45;b4d1&#45;4495&#45;bd6b&#45;a2af94cb5025</title>
<polygon fill="turquoise" stroke="turquoise" points="1340,-515 915,-515 915,-479 1340,-479 1340,-515"/>
<text text-anchor="middle" x="1127.5" y="-493.3" font-family="Times New Roman,serif" font-size="14.00">SearchModule_ContributeSearchFragment.bindAndroidInjectorFactory()</text>
</g>
<!-- 08aaed7f&#45;c9bf&#45;4d02&#45;9a04&#45;77d972c5ee7c&#45;&gt;008b915f&#45;b4d1&#45;4495&#45;bd6b&#45;a2af94cb5025 -->
<g id="edge20" class="edge"><title>08aaed7f&#45;c9bf&#45;4d02&#45;9a04&#45;77d972c5ee7c&#45;&gt;008b915f&#45;b4d1&#45;4495&#45;bd6b&#45;a2af94cb5025</title>
<path fill="none" stroke="black" d="M626.973,-856.716C642.713,-796.734 701.662,-605.152 830,-524 852.665,-509.669 878.32,-500.037 904.822,-493.789"/>
<polygon fill="black" stroke="black" points="905.604,-497.2 914.621,-491.637 904.103,-490.363 905.604,-497.2"/>
</g>
<!-- 9fe41a02&#45;f731&#45;4cc9&#45;a6a4&#45;f9922d66226e -->
<g id="node17" class="node"><title>9fe41a02&#45;f731&#45;4cc9&#45;a6a4&#45;f9922d66226e</title>
<polygon fill="turquoise" stroke="turquoise" points="1361,-569 894,-569 894,-533 1361,-533 1361,-569"/>
<text text-anchor="middle" x="1127.5" y="-547.3" font-family="Times New Roman,serif" font-size="14.00">ServiceBindingModule_IoschedMessagingService.bindAndroidInjectorFactory()</text>
</g>
<!-- 08aaed7f&#45;c9bf&#45;4d02&#45;9a04&#45;77d972c5ee7c&#45;&gt;9fe41a02&#45;f731&#45;4cc9&#45;a6a4&#45;f9922d66226e -->
<g id="edge9" class="edge"><title>08aaed7f&#45;c9bf&#45;4d02&#45;9a04&#45;77d972c5ee7c&#45;&gt;9fe41a02&#45;f731&#45;4cc9&#45;a6a4&#45;f9922d66226e</title>
<path fill="none" stroke="black" d="M628.84,-856.871C648.683,-803.185 715.214,-644.623 830,-578 846.827,-568.233 865.116,-560.755 884.073,-555.103"/>
<polygon fill="black" stroke="black" points="885.051,-558.464 893.734,-552.393 883.16,-551.724 885.051,-558.464"/>
</g>
<!-- 01acefda&#45;edd4&#45;4f07&#45;8fb0&#45;7c57d403c23a -->
<g id="node18" class="node"><title>01acefda&#45;edd4&#45;4f07&#45;8fb0&#45;7c57d403c23a</title>
<polygon fill="turquoise" stroke="turquoise" points="1374,-623 881,-623 881,-587 1374,-587 1374,-623"/>
<text text-anchor="middle" x="1127.5" y="-601.3" font-family="Times New Roman,serif" font-size="14.00">SignInDialogModule_ContributeSignInDialogFragment.bindAndroidInjectorFactory()</text>
</g>
<!-- 08aaed7f&#45;c9bf&#45;4d02&#45;9a04&#45;77d972c5ee7c&#45;&gt;01acefda&#45;edd4&#45;4f07&#45;8fb0&#45;7c57d403c23a -->
<g id="edge28" class="edge"><title>08aaed7f&#45;c9bf&#45;4d02&#45;9a04&#45;77d972c5ee7c&#45;&gt;01acefda&#45;edd4&#45;4f07&#45;8fb0&#45;7c57d403c23a</title>
<path fill="none" stroke="black" d="M631.539,-856.821C655.99,-809.86 728.499,-684.511 830,-632 842.962,-625.294 856.672,-619.739 870.806,-615.162"/>
<polygon fill="black" stroke="black" points="872.117,-618.422 880.655,-612.148 870.069,-611.728 872.117,-618.422"/>
</g>
<!-- 1f6b905f&#45;1535&#45;4f9b&#45;bc43&#45;eca59d6cf5e9 -->
<g id="node19" class="node"><title>1f6b905f&#45;1535&#45;4f9b&#45;bc43&#45;eca59d6cf5e9</title>
<polygon fill="turquoise" stroke="turquoise" points="1373,-677 882,-677 882,-641 1373,-641 1373,-677"/>
<text text-anchor="middle" x="1127.5" y="-655.3" font-family="Times New Roman,serif" font-size="14.00">MapModule_ContributeMapVariantSelectionFragment.bindAndroidInjectorFactory()</text>
</g>
<!-- 08aaed7f&#45;c9bf&#45;4d02&#45;9a04&#45;77d972c5ee7c&#45;&gt;1f6b905f&#45;1535&#45;4f9b&#45;bc43&#45;eca59d6cf5e9 -->
<g id="edge16" class="edge"><title>08aaed7f&#45;c9bf&#45;4d02&#45;9a04&#45;77d972c5ee7c&#45;&gt;1f6b905f&#45;1535&#45;4f9b&#45;bc43&#45;eca59d6cf5e9</title>
<path fill="none" stroke="black" d="M635.581,-856.875C665.096,-817.608 741.254,-725.078 830,-686 843.356,-680.119 857.373,-675.206 871.742,-671.12"/>
<polygon fill="black" stroke="black" points="873,-674.406 881.743,-668.422 871.176,-667.648 873,-674.406"/>
</g>
<!-- 210a4cc4&#45;95f5&#45;4c1d&#45;92cf&#45;a14cb7e2693c -->
<g id="node20" class="node"><title>210a4cc4&#45;95f5&#45;4c1d&#45;92cf&#45;a14cb7e2693c</title>
<polygon fill="turquoise" stroke="turquoise" points="1325,-731 930,-731 930,-695 1325,-695 1325,-731"/>
<text text-anchor="middle" x="1127.5" y="-709.3" font-family="Times New Roman,serif" font-size="14.00">InfoModule_ContributeInfoFragment.bindAndroidInjectorFactory()</text>
</g>
<!-- 08aaed7f&#45;c9bf&#45;4d02&#45;9a04&#45;77d972c5ee7c&#45;&gt;210a4cc4&#45;95f5&#45;4c1d&#45;92cf&#45;a14cb7e2693c -->
<g id="edge14" class="edge"><title>08aaed7f&#45;c9bf&#45;4d02&#45;9a04&#45;77d972c5ee7c&#45;&gt;210a4cc4&#45;95f5&#45;4c1d&#45;92cf&#45;a14cb7e2693c</title>
<path fill="none" stroke="black" d="M642.766,-856.847C677.944,-826.549 753.865,-766.402 830,-740 858.423,-730.143 889.247,-723.373 919.912,-718.795"/>
<polygon fill="black" stroke="black" points="920.45,-722.254 929.859,-717.385 919.467,-715.323 920.45,-722.254"/>
</g>
<!-- 033361ac&#45;f14f&#45;4600&#45;980b&#45;388f57975f10 -->
<g id="node21" class="node"><title>033361ac&#45;f14f&#45;4600&#45;980b&#45;388f57975f10</title>
<polygon fill="turquoise" stroke="turquoise" points="1370,-785 885,-785 885,-749 1370,-749 1370,-785"/>
<text text-anchor="middle" x="1127.5" y="-763.3" font-family="Times New Roman,serif" font-size="14.00">AgendaModule_ContributeScheduleAgendaFragment.bindAndroidInjectorFactory()</text>
</g>
<!-- 08aaed7f&#45;c9bf&#45;4d02&#45;9a04&#45;77d972c5ee7c&#45;&gt;033361ac&#45;f14f&#45;4600&#45;980b&#45;388f57975f10 -->
<g id="edge11" class="edge"><title>08aaed7f&#45;c9bf&#45;4d02&#45;9a04&#45;77d972c5ee7c&#45;&gt;033361ac&#45;f14f&#45;4600&#45;980b&#45;388f57975f10</title>
<path fill="none" stroke="black" d="M659.345,-856.947C700.06,-837.879 768.082,-808.595 830,-794 844.548,-790.571 859.592,-787.572 874.835,-784.95"/>
<polygon fill="black" stroke="black" points="875.586,-788.373 884.877,-783.28 874.438,-781.468 875.586,-788.373"/>
</g>
<!-- c1a48495&#45;02fb&#45;4481&#45;8345&#45;3ba598c8d787 -->
<g id="node22" class="node"><title>c1a48495&#45;02fb&#45;4481&#45;8345&#45;3ba598c8d787</title>
<polygon fill="turquoise" stroke="turquoise" points="1346,-839 909,-839 909,-803 1346,-803 1346,-839"/>
<text text-anchor="middle" x="1127.5" y="-817.3" font-family="Times New Roman,serif" font-size="14.00">SettingsModule_ContributeSettingsFragment.bindAndroidInjectorFactory()</text>
</g>
<!-- 08aaed7f&#45;c9bf&#45;4d02&#45;9a04&#45;77d972c5ee7c&#45;&gt;c1a48495&#45;02fb&#45;4481&#45;8345&#45;3ba598c8d787 -->
<g id="edge22" class="edge"><title>08aaed7f&#45;c9bf&#45;4d02&#45;9a04&#45;77d972c5ee7c&#45;&gt;c1a48495&#45;02fb&#45;4481&#45;8345&#45;3ba598c8d787</title>
<path fill="none" stroke="black" d="M754.964,-856.989C779.873,-853.822 805.717,-850.684 830,-848 855.056,-845.23 881.326,-842.536 907.438,-839.988"/>
<polygon fill="black" stroke="black" points="907.819,-843.468 917.435,-839.02 907.144,-836.501 907.819,-843.468"/>
</g>
<!-- efa249bc&#45;6b3e&#45;4398&#45;af26&#45;55c556305b22 -->
<g id="node23" class="node"><title>efa249bc&#45;6b3e&#45;4398&#45;af26&#45;55c556305b22</title>
<polygon fill="turquoise" stroke="turquoise" points="1400,-893 855,-893 855,-857 1400,-857 1400,-893"/>
<text text-anchor="middle" x="1127.5" y="-871.3" font-family="Times New Roman,serif" font-size="14.00">SessionFeedbackModule_ContributeSessionFeedbackFragment.bindAndroidInjectorFactory()</text>
</g>
<!-- 08aaed7f&#45;c9bf&#45;4d02&#45;9a04&#45;77d972c5ee7c&#45;&gt;efa249bc&#45;6b3e&#45;4398&#45;af26&#45;55c556305b22 -->
<g id="edge27" class="edge"><title>08aaed7f&#45;c9bf&#45;4d02&#45;9a04&#45;77d972c5ee7c&#45;&gt;efa249bc&#45;6b3e&#45;4398&#45;af26&#45;55c556305b22</title>
<path fill="none" stroke="black" d="M793.131,-875C809.842,-875 827.087,-875 844.527,-875"/>
<polygon fill="black" stroke="black" points="844.815,-878.5 854.815,-875 844.815,-871.5 844.815,-878.5"/>
</g>
<!-- 7aa54632&#45;e373&#45;4dcf&#45;816b&#45;c7d20b1904be -->
<g id="node24" class="node"><title>7aa54632&#45;e373&#45;4dcf&#45;816b&#45;c7d20b1904be</title>
<polygon fill="turquoise" stroke="turquoise" points="1425,-947 830,-947 830,-911 1425,-911 1425,-947"/>
<text text-anchor="middle" x="1127.5" y="-925.3" font-family="Times New Roman,serif" font-size="14.00">BroadcastReceiverBindingModule_CancelNotificationBroadcastReceiver.bindAndroidInjectorFactory()</text>
</g>
<!-- 08aaed7f&#45;c9bf&#45;4d02&#45;9a04&#45;77d972c5ee7c&#45;&gt;7aa54632&#45;e373&#45;4dcf&#45;816b&#45;c7d20b1904be -->
<g id="edge8" class="edge"><title>08aaed7f&#45;c9bf&#45;4d02&#45;9a04&#45;77d972c5ee7c&#45;&gt;7aa54632&#45;e373&#45;4dcf&#45;816b&#45;c7d20b1904be</title>
<path fill="none" stroke="black" d="M754.964,-893.011C779.873,-896.178 805.717,-899.316 830,-902 855.056,-904.77 881.326,-907.464 907.438,-910.012"/>
<polygon fill="black" stroke="black" points="907.144,-913.499 917.435,-910.98 907.819,-906.532 907.144,-913.499"/>
</g>
<!-- 80069b82&#45;a46e&#45;4814&#45;bfd5&#45;f9bb300be6d6 -->
<g id="node25" class="node"><title>80069b82&#45;a46e&#45;4814&#45;bfd5&#45;f9bb300be6d6</title>
<polygon fill="turquoise" stroke="turquoise" points="1344.5,-1001 910.5,-1001 910.5,-965 1344.5,-965 1344.5,-1001"/>
<text text-anchor="middle" x="1127.5" y="-979.3" font-family="Times New Roman,serif" font-size="14.00">ActivityBindingModule_OnboardingActivity.bindAndroidInjectorFactory()</text>
</g>
<!-- 08aaed7f&#45;c9bf&#45;4d02&#45;9a04&#45;77d972c5ee7c&#45;&gt;80069b82&#45;a46e&#45;4814&#45;bfd5&#45;f9bb300be6d6 -->
<g id="edge4" class="edge"><title>08aaed7f&#45;c9bf&#45;4d02&#45;9a04&#45;77d972c5ee7c&#45;&gt;80069b82&#45;a46e&#45;4814&#45;bfd5&#45;f9bb300be6d6</title>
<path fill="none" stroke="black" d="M659.345,-893.053C700.06,-912.121 768.082,-941.405 830,-956 852.561,-961.318 876.316,-965.601 900.154,-969.049"/>
<polygon fill="black" stroke="black" points="899.984,-972.56 910.372,-970.477 900.953,-965.627 899.984,-972.56"/>
</g>
<!-- eaca126b&#45;4a27&#45;4942&#45;8ba5&#45;91c749101c69 -->
<g id="node26" class="node"><title>eaca126b&#45;4a27&#45;4942&#45;8ba5&#45;91c749101c69</title>
<polygon fill="turquoise" stroke="turquoise" points="1337,-1055 918,-1055 918,-1019 1337,-1019 1337,-1055"/>
<text text-anchor="middle" x="1127.5" y="-1033.3" font-family="Times New Roman,serif" font-size="14.00">ActivityBindingModule_LauncherActivity.bindAndroidInjectorFactory()</text>
</g>
<!-- 08aaed7f&#45;c9bf&#45;4d02&#45;9a04&#45;77d972c5ee7c&#45;&gt;eaca126b&#45;4a27&#45;4942&#45;8ba5&#45;91c749101c69 -->
<g id="edge3" class="edge"><title>08aaed7f&#45;c9bf&#45;4d02&#45;9a04&#45;77d972c5ee7c&#45;&gt;eaca126b&#45;4a27&#45;4942&#45;8ba5&#45;91c749101c69</title>
<path fill="none" stroke="black" d="M642.766,-893.153C677.944,-923.451 753.865,-983.598 830,-1010 854.575,-1018.52 880.945,-1024.74 907.454,-1029.22"/>
<polygon fill="black" stroke="black" points="907.189,-1032.72 917.618,-1030.86 908.301,-1025.81 907.189,-1032.72"/>
</g>
<!-- 6f9ffd42&#45;accd&#45;48d7&#45;b114&#45;e3b2c81638a8 -->
<g id="node27" class="node"><title>6f9ffd42&#45;accd&#45;48d7&#45;b114&#45;e3b2c81638a8</title>
<polygon fill="turquoise" stroke="turquoise" points="1355,-1109 900,-1109 900,-1073 1355,-1073 1355,-1109"/>
<text text-anchor="middle" x="1127.5" y="-1087.3" font-family="Times New Roman,serif" font-size="14.00">CodelabsModule_ContributeCodelabsFragment.bindAndroidInjectorFactory()</text>
</g>
<!-- 08aaed7f&#45;c9bf&#45;4d02&#45;9a04&#45;77d972c5ee7c&#45;&gt;6f9ffd42&#45;accd&#45;48d7&#45;b114&#45;e3b2c81638a8 -->
<g id="edge12" class="edge"><title>08aaed7f&#45;c9bf&#45;4d02&#45;9a04&#45;77d972c5ee7c&#45;&gt;6f9ffd42&#45;accd&#45;48d7&#45;b114&#45;e3b2c81638a8</title>
<path fill="none" stroke="black" d="M635.581,-893.125C665.096,-932.392 741.254,-1024.92 830,-1064 848.99,-1072.36 869.314,-1078.77 890.088,-1083.62"/>
<polygon fill="black" stroke="black" points="889.469,-1087.07 899.989,-1085.81 890.981,-1080.23 889.469,-1087.07"/>
</g>
<!-- 00b9da0f&#45;aaa9&#45;49e3&#45;9e0b&#45;d08768ca2124 -->
<g id="node28" class="node"><title>00b9da0f&#45;aaa9&#45;49e3&#45;9e0b&#45;d08768ca2124</title>
<polygon fill="turquoise" stroke="turquoise" points="1409,-1163 846,-1163 846,-1127 1409,-1127 1409,-1163"/>
<text text-anchor="middle" x="1127.5" y="-1141.3" font-family="Times New Roman,serif" font-size="14.00">ReservationModule_ContributeRemoveReservationDialogFragment.bindAndroidInjectorFactory()</text>
</g>
<!-- 08aaed7f&#45;c9bf&#45;4d02&#45;9a04&#45;77d972c5ee7c&#45;&gt;00b9da0f&#45;aaa9&#45;49e3&#45;9e0b&#45;d08768ca2124 -->
<g id="edge25" class="edge"><title>08aaed7f&#45;c9bf&#45;4d02&#45;9a04&#45;77d972c5ee7c&#45;&gt;00b9da0f&#45;aaa9&#45;49e3&#45;9e0b&#45;d08768ca2124</title>
<path fill="none" stroke="black" d="M631.539,-893.179C655.99,-940.14 728.499,-1065.49 830,-1118 833.354,-1119.73 836.757,-1121.39 840.205,-1122.98"/>
<polygon fill="black" stroke="black" points="838.866,-1126.21 849.432,-1127 841.663,-1119.79 838.866,-1126.21"/>
</g>
<!-- 28015a1c&#45;04cd&#45;4dbb&#45;be75&#45;8db6e4205fd2 -->
<g id="node29" class="node"><title>28015a1c&#45;04cd&#45;4dbb&#45;be75&#45;8db6e4205fd2</title>
<polygon fill="turquoise" stroke="turquoise" points="1392,-1217 863,-1217 863,-1181 1392,-1181 1392,-1217"/>
<text text-anchor="middle" x="1127.5" y="-1195.3" font-family="Times New Roman,serif" font-size="14.00">ScheduleModule_ContributeScheduleUiHintsDialogFragment.bindAndroidInjectorFactory()</text>
</g>
<!-- 08aaed7f&#45;c9bf&#45;4d02&#45;9a04&#45;77d972c5ee7c&#45;&gt;28015a1c&#45;04cd&#45;4dbb&#45;be75&#45;8db6e4205fd2 -->
<g id="edge19" class="edge"><title>08aaed7f&#45;c9bf&#45;4d02&#45;9a04&#45;77d972c5ee7c&#45;&gt;28015a1c&#45;04cd&#45;4dbb&#45;be75&#45;8db6e4205fd2</title>
<path fill="none" stroke="black" d="M628.84,-893.129C648.683,-946.815 715.214,-1105.38 830,-1172 837.471,-1176.34 845.229,-1180.22 853.206,-1183.7"/>
<polygon fill="black" stroke="black" points="852.088,-1187.02 862.667,-1187.59 854.751,-1180.55 852.088,-1187.02"/>
</g>
<!-- ac2739e1&#45;98e1&#45;4f32&#45;aeac&#45;d360295d6b14 -->
<g id="node30" class="node"><title>ac2739e1&#45;98e1&#45;4f32&#45;aeac&#45;d360295d6b14</title>
<polygon fill="turquoise" stroke="turquoise" points="1327.5,-1271 927.5,-1271 927.5,-1235 1327.5,-1235 1327.5,-1271"/>
<text text-anchor="middle" x="1127.5" y="-1249.3" font-family="Times New Roman,serif" font-size="14.00">MapModule_ContributeMapFragment.bindAndroidInjectorFactory()</text>
</g>
<!-- 08aaed7f&#45;c9bf&#45;4d02&#45;9a04&#45;77d972c5ee7c&#45;&gt;ac2739e1&#45;98e1&#45;4f32&#45;aeac&#45;d360295d6b14 -->
<g id="edge15" class="edge"><title>08aaed7f&#45;c9bf&#45;4d02&#45;9a04&#45;77d972c5ee7c&#45;&gt;ac2739e1&#45;98e1&#45;4f32&#45;aeac&#45;d360295d6b14</title>
<path fill="none" stroke="black" d="M626.973,-893.284C642.713,-953.266 701.662,-1144.85 830,-1226 856.215,-1242.58 886.431,-1252.87 917.332,-1258.9"/>
<polygon fill="black" stroke="black" points="916.922,-1262.39 927.384,-1260.72 918.165,-1255.5 916.922,-1262.39"/>
</g>
<!-- 38edbb6f&#45;e697&#45;4f69&#45;a19d&#45;f4d14eeb795a -->
<g id="node31" class="node"><title>38edbb6f&#45;e697&#45;4f69&#45;a19d&#45;f4d14eeb795a</title>
<polygon fill="turquoise" stroke="turquoise" points="1329.5,-1325 925.5,-1325 925.5,-1289 1329.5,-1289 1329.5,-1325"/>
<text text-anchor="middle" x="1127.5" y="-1303.3" font-family="Times New Roman,serif" font-size="14.00">FeedModule_ContributeFeedFragment.bindAndroidInjectorFactory()</text>
</g>
<!-- 08aaed7f&#45;c9bf&#45;4d02&#45;9a04&#45;77d972c5ee7c&#45;&gt;38edbb6f&#45;e697&#45;4f69&#45;a19d&#45;f4d14eeb795a -->
<g id="edge13" class="edge"><title>08aaed7f&#45;c9bf&#45;4d02&#45;9a04&#45;77d972c5ee7c&#45;&gt;38edbb6f&#45;e697&#45;4f69&#45;a19d&#45;f4d14eeb795a</title>
<path fill="none" stroke="black" d="M625.506,-893.199C637.39,-958.727 687.607,-1183.82 830,-1280 855.412,-1297.17 884.971,-1307.82 915.389,-1314.07"/>
<polygon fill="black" stroke="black" points="914.814,-1317.52 925.291,-1315.95 916.117,-1310.65 914.814,-1317.52"/>
</g>
<!-- 8314613a&#45;a7c5&#45;4c75&#45;b972&#45;9530c1972186 -->
<g id="node32" class="node"><title>8314613a&#45;a7c5&#45;4c75&#45;b972&#45;9530c1972186</title>
<polygon fill="turquoise" stroke="turquoise" points="1421,-1379 834,-1379 834,-1343 1421,-1343 1421,-1379"/>
<text text-anchor="middle" x="1127.5" y="-1357.3" font-family="Times New Roman,serif" font-size="14.00">SignInDialogModule_ContributeNotificationsPreferenceDialogFragment.bindAndroidInjectorFactory()</text>
</g>
<!-- 08aaed7f&#45;c9bf&#45;4d02&#45;9a04&#45;77d972c5ee7c&#45;&gt;8314613a&#45;a7c5&#45;4c75&#45;b972&#45;9530c1972186 -->
<g id="edge30" class="edge"><title>08aaed7f&#45;c9bf&#45;4d02&#45;9a04&#45;77d972c5ee7c&#45;&gt;8314613a&#45;a7c5&#45;4c75&#45;b972&#45;9530c1972186</title>
<path fill="none" stroke="black" d="M624.357,-893.06C632.67,-963.642 673.249,-1222.44 830,-1334 831.658,-1335.18 833.336,-1336.33 835.031,-1337.45"/>
<polygon fill="black" stroke="black" points="833.315,-1340.51 843.655,-1342.81 837.012,-1334.56 833.315,-1340.51"/>
</g>
<!-- 3269d19a&#45;c6b0&#45;43a3&#45;91e1&#45;a3973ba5ef9c -->
<g id="node33" class="node"><title>3269d19a&#45;c6b0&#45;43a3&#45;91e1&#45;a3973ba5ef9c</title>
<polygon fill="turquoise" stroke="turquoise" points="1379,-1433 876,-1433 876,-1397 1379,-1397 1379,-1433"/>
<text text-anchor="middle" x="1127.5" y="-1411.3" font-family="Times New Roman,serif" font-size="14.00">SignInDialogModule_ContributeSignOutDialogFragment.bindAndroidInjectorFactory()</text>
</g>
<!-- 08aaed7f&#45;c9bf&#45;4d02&#45;9a04&#45;77d972c5ee7c&#45;&gt;3269d19a&#45;c6b0&#45;43a3&#45;91e1&#45;a3973ba5ef9c -->
<g id="edge29" class="edge"><title>08aaed7f&#45;c9bf&#45;4d02&#45;9a04&#45;77d972c5ee7c&#45;&gt;3269d19a&#45;c6b0&#45;43a3&#45;91e1&#45;a3973ba5ef9c</title>
<path fill="none" stroke="black" d="M623.446,-893.015C628.47,-968.447 658.753,-1260.87 830,-1388 841.271,-1396.37 853.488,-1403.26 866.322,-1408.91"/>
<polygon fill="black" stroke="black" points="865.193,-1412.23 875.773,-1412.8 867.858,-1405.75 865.193,-1412.23"/>
</g>
<!-- 40bb30b5&#45;89ce&#45;48ba&#45;9261&#45;661515d620af -->
<g id="node34" class="node"><title>40bb30b5&#45;89ce&#45;48ba&#45;9261&#45;661515d620af</title>
<polygon fill="turquoise" stroke="turquoise" points="1377,-1487 878,-1487 878,-1451 1377,-1451 1377,-1487"/>
<text text-anchor="middle" x="1127.5" y="-1465.3" font-family="Times New Roman,serif" font-size="14.00">SessionDetailModule_ContributeSessionDetailFragment.bindAndroidInjectorFactory()</text>
</g>
<!-- 08aaed7f&#45;c9bf&#45;4d02&#45;9a04&#45;77d972c5ee7c&#45;&gt;40bb30b5&#45;89ce&#45;48ba&#45;9261&#45;661515d620af -->
<g id="edge21" class="edge"><title>08aaed7f&#45;c9bf&#45;4d02&#45;9a04&#45;77d972c5ee7c&#45;&gt;40bb30b5&#45;89ce&#45;48ba&#45;9261&#45;661515d620af</title>
<path fill="none" stroke="black" d="M622.703,-893.191C624.681,-973.572 644.263,-1299.21 830,-1442 841.82,-1451.09 854.74,-1458.47 868.363,-1464.41"/>
<polygon fill="black" stroke="black" points="867.32,-1467.77 877.902,-1468.3 869.964,-1461.29 867.32,-1467.77"/>
</g>
<!-- 0c37276c&#45;3216&#45;4660&#45;a423&#45;b588c4ffef11 -->
<g id="node35" class="node"><title>0c37276c&#45;3216&#45;4660&#45;a423&#45;b588c4ffef11</title>
<polygon fill="turquoise" stroke="turquoise" points="1348.5,-1541 906.5,-1541 906.5,-1505 1348.5,-1505 1348.5,-1541"/>
<text text-anchor="middle" x="1127.5" y="-1519.3" font-family="Times New Roman,serif" font-size="14.00">ActivityBindingModule_SessionDetailActivity.bindAndroidInjectorFactory()</text>
</g>
<!-- 08aaed7f&#45;c9bf&#45;4d02&#45;9a04&#45;77d972c5ee7c&#45;&gt;0c37276c&#45;3216&#45;4660&#45;a423&#45;b588c4ffef11 -->
<g id="edge6" class="edge"><title>08aaed7f&#45;c9bf&#45;4d02&#45;9a04&#45;77d972c5ee7c&#45;&gt;0c37276c&#45;3216&#45;4660&#45;a423&#45;b588c4ffef11</title>
<path fill="none" stroke="black" d="M622.069,-893.13C621.143,-977.848 629.46,-1337.26 830,-1496 849.679,-1511.58 872.558,-1522.22 896.718,-1529.23"/>
<polygon fill="black" stroke="black" points="895.836,-1532.62 906.402,-1531.83 897.654,-1525.86 895.836,-1532.62"/>
</g>
<!-- 74d34e6d&#45;1f32&#45;438d&#45;b74e&#45;653fb005b60f -->
<g id="node36" class="node"><title>74d34e6d&#45;1f32&#45;438d&#45;b74e&#45;653fb005b60f</title>
<polygon fill="turquoise" stroke="turquoise" points="1401.5,-1595 853.5,-1595 853.5,-1559 1401.5,-1559 1401.5,-1595"/>
<text text-anchor="middle" x="1127.5" y="-1573.3" font-family="Times New Roman,serif" font-size="14.00">ReservationModule_ContributeSwapReservationDialogFragment.bindAndroidInjectorFactory()</text>
</g>
<!-- 08aaed7f&#45;c9bf&#45;4d02&#45;9a04&#45;77d972c5ee7c&#45;&gt;74d34e6d&#45;1f32&#45;438d&#45;b74e&#45;653fb005b60f -->
<g id="edge26" class="edge"><title>08aaed7f&#45;c9bf&#45;4d02&#45;9a04&#45;77d972c5ee7c&#45;&gt;74d34e6d&#45;1f32&#45;438d&#45;b74e&#45;653fb005b60f</title>
<path fill="none" stroke="black" d="M625.352,-893.313C641.143,-992.243 721.115,-1461.64 830,-1550 834.693,-1553.81 839.575,-1557.32 844.62,-1560.57"/>
<polygon fill="black" stroke="black" points="842.887,-1563.61 853.259,-1565.77 846.499,-1557.61 842.887,-1563.61"/>
</g>
<!-- a0abe78c&#45;16c5&#45;40f2&#45;abc8&#45;1d8399830c9c -->
<g id="node37" class="node"><title>a0abe78c&#45;16c5&#45;40f2&#45;abc8&#45;1d8399830c9c</title>
<polygon fill="turquoise" stroke="turquoise" points="1325,-1649 930,-1649 930,-1613 1325,-1613 1325,-1649"/>
<text text-anchor="middle" x="1127.5" y="-1627.3" font-family="Times New Roman,serif" font-size="14.00">ActivityBindingModule_MainActivity.bindAndroidInjectorFactory()</text>
</g>
<!-- 08aaed7f&#45;c9bf&#45;4d02&#45;9a04&#45;77d972c5ee7c&#45;&gt;a0abe78c&#45;16c5&#45;40f2&#45;abc8&#45;1d8399830c9c -->
<g id="edge5" class="edge"><title>08aaed7f&#45;c9bf&#45;4d02&#45;9a04&#45;77d972c5ee7c&#45;&gt;a0abe78c&#45;16c5&#45;40f2&#45;abc8&#45;1d8399830c9c</title>
<path fill="none" stroke="black" d="M624.881,-893.043C638.843,-995.941 713.496,-1507.42 830,-1604 878.809,-1644.46 948.91,-1652.35 1008.7,-1649.59"/>
<polygon fill="black" stroke="black" points="1009.18,-1653.07 1018.96,-1649.01 1008.78,-1646.08 1009.18,-1653.07"/>
</g>
<!-- e48b0648&#45;8b1e&#45;44fd&#45;85d0&#45;0a7099e02297 -->
<g id="node38" class="node"><title>e48b0648&#45;8b1e&#45;44fd&#45;85d0&#45;0a7099e02297</title>
<polygon fill="turquoise" stroke="turquoise" points="1390,-1703 865,-1703 865,-1667 1390,-1667 1390,-1703"/>
<text text-anchor="middle" x="1127.5" y="-1681.3" font-family="Times New Roman,serif" font-size="14.00">BroadcastReceiverBindingModule_AlarmBroadcastReceiver.bindAndroidInjectorFactory()</text>
</g>
<!-- 08aaed7f&#45;c9bf&#45;4d02&#45;9a04&#45;77d972c5ee7c&#45;&gt;e48b0648&#45;8b1e&#45;44fd&#45;85d0&#45;0a7099e02297 -->
<g id="edge7" class="edge"><title>08aaed7f&#45;c9bf&#45;4d02&#45;9a04&#45;77d972c5ee7c&#45;&gt;e48b0648&#45;8b1e&#45;44fd&#45;85d0&#45;0a7099e02297</title>
<path fill="none" stroke="black" d="M624.519,-893.319C636.822,-1001.36 705.338,-1554.15 830,-1658 878.992,-1698.81 949.619,-1706.56 1009.65,-1703.63"/>
<polygon fill="black" stroke="black" points="1010.18,-1707.11 1019.96,-1703.02 1009.77,-1700.12 1010.18,-1707.11"/>
</g>
</g>
</svg>
