<svg width="1257px" height="194px"
 viewBox="0.00 0.00 1256.80 193.80" xmlns="http://www.w3.org/2000/svg" xmlns:xlink="http://www.w3.org/1999/xlink">
<g id="graph0" class="graph" transform="scale(1.0 1.0) rotate(0) translate(14.4 179.4)">
<title>com.google.samples.apps.iosched.di.AppComponent → com.google.samples.apps.iosched.di.ActivityBindingModule_MainActivity$mobile_debug.MainActivitySubcomponent → com.google.samples.apps.iosched.ui.settings.SettingsModule_ContributeThemeSettingFragment$mobile_debug.ThemeSettingDialogFragmentSubcomponent</title>
<polygon fill="white" stroke="none" points="-14.4,14.4 -14.4,-179.4 1242.4,-179.4 1242.4,14.4 -14.4,14.4"/>
<text text-anchor="middle" x="614" y="-7.8" font-family="Times New Roman,serif" font-size="14.00">AppComponent → ActivityBindingModule_MainActivity$mobile_debug.MainActivitySubcomponent → SettingsModule_ContributeThemeSettingFragment$mobile_debug.ThemeSettingDialogFragmentSubcomponent</text>
<g id="clust1" class="cluster"><title>cluster_Entry Points</title>
<polygon fill="none" stroke="black" points="494,-31 494,-106 734,-106 734,-31 494,-31"/>
<text text-anchor="middle" x="537" y="-90.8" font-family="Times New Roman,serif" font-size="14.00">Entry Points</text>
</g>
<g id="clust2" class="cluster"><title>cluster_Dependency Graph</title>
<polygon fill="none" stroke="black" points="552.2,-114 552.2,-157 676.8,-157 676.8,-114 552.2,-114"/>
<text text-anchor="middle" x="614.7" y="-141.8" font-family="Times New Roman,serif" font-size="14.00">Dependency Graph</text>
</g>
<!-- c7368e34&#45;cfbb&#45;442b&#45;a619&#45;1e3141af6abb -->
<g id="node1" class="node"><title>c7368e34&#45;cfbb&#45;442b&#45;a619&#45;1e3141af6abb</title>
<polygon fill="turquoise" stroke="turquoise" stroke-width="2" points="726,-75 502,-75 502,-71 498,-71 498,-67 502,-67 502,-47 498,-47 498,-43 502,-43 502,-39 726,-39 726,-75"/>
<polyline fill="none" stroke="turquoise" stroke-width="2" points="502,-71 506,-71 506,-67 502,-67 "/>
<polyline fill="none" stroke="turquoise" stroke-width="2" points="502,-47 506,-47 506,-43 502,-43 "/>
<text text-anchor="middle" x="614" y="-53.3" font-family="Times New Roman,serif" font-size="14.00">inject (ThemeSettingDialogFragment)</text>
</g>
<!-- 2bf49350&#45;8943&#45;4c41&#45;bd7c&#45;e1ba359c0f7b -->
</g>
</svg>
