<svg width="1477px" height="194px"
 viewBox="0.00 0.00 1476.80 193.80" xmlns="http://www.w3.org/2000/svg" xmlns:xlink="http://www.w3.org/1999/xlink">
<g id="graph0" class="graph" transform="scale(1.0 1.0) rotate(0) translate(14.4 179.4)">
<title>com.google.samples.apps.iosched.di.AppComponent → com.google.samples.apps.iosched.di.ActivityBindingModule_OnboardingActivity$mobile_debug.OnboardingActivitySubcomponent → com.google.samples.apps.iosched.ui.onboarding.OnboardingModule_ContributeWelcomeDuringConferenceFragment$mobile_debug.WelcomeDuringConferenceFragmentSubcomponent</title>
<polygon fill="white" stroke="none" points="-14.4,14.4 -14.4,-179.4 1462.4,-179.4 1462.4,14.4 -14.4,14.4"/>
<text text-anchor="middle" x="724" y="-7.8" font-family="Times New Roman,serif" font-size="14.00">AppComponent → ActivityBindingModule_OnboardingActivity$mobile_debug.OnboardingActivitySubcomponent → OnboardingModule_ContributeWelcomeDuringConferenceFragment$mobile_debug.WelcomeDuringConferenceFragmentSubcomponent</text>
<g id="clust1" class="cluster"><title>cluster_Entry Points</title>
<polygon fill="none" stroke="black" points="583,-31 583,-106 865,-106 865,-31 583,-31"/>
<text text-anchor="middle" x="626" y="-90.8" font-family="Times New Roman,serif" font-size="14.00">Entry Points</text>
</g>
<g id="clust2" class="cluster"><title>cluster_Dependency Graph</title>
<polygon fill="none" stroke="black" points="662.2,-114 662.2,-157 786.8,-157 786.8,-114 662.2,-114"/>
<text text-anchor="middle" x="724.7" y="-141.8" font-family="Times New Roman,serif" font-size="14.00">Dependency Graph</text>
</g>
<!-- 65a347d6&#45;d115&#45;4c6f&#45;8217&#45;3b763ab0d20f -->
<g id="node1" class="node"><title>65a347d6&#45;d115&#45;4c6f&#45;8217&#45;3b763ab0d20f</title>
<polygon fill="turquoise" stroke="turquoise" stroke-width="2" points="857,-75 591,-75 591,-71 587,-71 587,-67 591,-67 591,-47 587,-47 587,-43 591,-43 591,-39 857,-39 857,-75"/>
<polyline fill="none" stroke="turquoise" stroke-width="2" points="591,-71 595,-71 595,-67 591,-67 "/>
<polyline fill="none" stroke="turquoise" stroke-width="2" points="591,-47 595,-47 595,-43 591,-43 "/>
<text text-anchor="middle" x="724" y="-53.3" font-family="Times New Roman,serif" font-size="14.00">inject (WelcomeDuringConferenceFragment)</text>
</g>
<!-- 4de16a82&#45;dbf3&#45;4f95&#45;8d52&#45;43d46696d111 -->
</g>
</svg>
