<svg width="1203px" height="194px"
 viewBox="0.00 0.00 1202.80 193.80" xmlns="http://www.w3.org/2000/svg" xmlns:xlink="http://www.w3.org/1999/xlink">
<g id="graph0" class="graph" transform="scale(1.0 1.0) rotate(0) translate(14.4 179.4)">
<title>com.google.samples.apps.iosched.di.AppComponent → com.google.samples.apps.iosched.di.ActivityBindingModule_MainActivity$mobile_debug.MainActivitySubcomponent → com.google.samples.apps.iosched.ui.agenda.AgendaModule_ContributeScheduleAgendaFragment$mobile_debug.AgendaFragmentSubcomponent</title>
<polygon fill="white" stroke="none" points="-14.4,14.4 -14.4,-179.4 1188.4,-179.4 1188.4,14.4 -14.4,14.4"/>
<text text-anchor="middle" x="587" y="-7.8" font-family="Times New Roman,serif" font-size="14.00">AppComponent → ActivityBindingModule_MainActivity$mobile_debug.MainActivitySubcomponent → AgendaModule_ContributeScheduleAgendaFragment$mobile_debug.AgendaFragmentSubcomponent</text>
<g id="clust1" class="cluster"><title>cluster_Entry Points</title>
<polygon fill="none" stroke="black" points="502,-31 502,-106 672,-106 672,-31 502,-31"/>
<text text-anchor="middle" x="545" y="-90.8" font-family="Times New Roman,serif" font-size="14.00">Entry Points</text>
</g>
<g id="clust2" class="cluster"><title>cluster_Dependency Graph</title>
<polygon fill="none" stroke="black" points="525.2,-114 525.2,-157 649.8,-157 649.8,-114 525.2,-114"/>
<text text-anchor="middle" x="587.7" y="-141.8" font-family="Times New Roman,serif" font-size="14.00">Dependency Graph</text>
</g>
<!-- 2847e320&#45;c2aa&#45;44e8&#45;8b00&#45;dc431f60baa4 -->
<g id="node1" class="node"><title>2847e320&#45;c2aa&#45;44e8&#45;8b00&#45;dc431f60baa4</title>
<polygon fill="turquoise" stroke="turquoise" stroke-width="2" points="664,-75 510,-75 510,-71 506,-71 506,-67 510,-67 510,-47 506,-47 506,-43 510,-43 510,-39 664,-39 664,-75"/>
<polyline fill="none" stroke="turquoise" stroke-width="2" points="510,-71 514,-71 514,-67 510,-67 "/>
<polyline fill="none" stroke="turquoise" stroke-width="2" points="510,-47 514,-47 514,-43 510,-43 "/>
<text text-anchor="middle" x="587" y="-53.3" font-family="Times New Roman,serif" font-size="14.00">inject (AgendaFragment)</text>
</g>
<!-- c4263b2b&#45;7f22&#45;4649&#45;a4e5&#45;368e72e0674d -->
</g>
</svg>
