<svg width="810px" height="219px"
 viewBox="0.00 0.00 809.80 218.80" xmlns="http://www.w3.org/2000/svg" xmlns:xlink="http://www.w3.org/1999/xlink">
<g id="graph0" class="graph" transform="scale(1.0 1.0) rotate(0) translate(14.4 204.4)">
<title>com.google.samples.apps.iosched.di.AppComponent → com.google.samples.apps.iosched.shared.di.BroadcastReceiverBindingModule_AlarmBroadcastReceiver$shared_debug.AlarmBroadcastReceiverSubcomponent</title>
<polygon fill="white" stroke="none" points="-14.4,14.4 -14.4,-204.4 795.4,-204.4 795.4,14.4 -14.4,14.4"/>
<text text-anchor="middle" x="390.5" y="-7.8" font-family="Times New Roman,serif" font-size="14.00">AppComponent → BroadcastReceiverBindingModule_AlarmBroadcastReceiver$shared_debug.AlarmBroadcastReceiverSubcomponent</text>
<g id="clust1" class="cluster"><title>cluster_Entry Points</title>
<polygon fill="none" stroke="black" points="168.5,-45 168.5,-120 382.5,-120 382.5,-45 168.5,-45"/>
<text text-anchor="middle" x="211.5" y="-104.8" font-family="Times New Roman,serif" font-size="14.00">Entry Points</text>
</g>
<g id="clust2" class="cluster"><title>cluster_Dependency Graph</title>
<polygon fill="none" stroke="black" points="402.5,-31 402.5,-182 612.5,-182 612.5,-31 402.5,-31"/>
<text text-anchor="middle" x="465" y="-166.8" font-family="Times New Roman,serif" font-size="14.00">Dependency Graph</text>
</g>
<!-- 78431175&#45;a6d1&#45;4c01&#45;a705&#45;259115785fbe -->
<g id="node1" class="node"><title>78431175&#45;a6d1&#45;4c01&#45;a705&#45;259115785fbe</title>
<polygon fill="turquoise" stroke="turquoise" stroke-width="2" points="374.5,-89 176.5,-89 176.5,-85 172.5,-85 172.5,-81 176.5,-81 176.5,-61 172.5,-61 172.5,-57 176.5,-57 176.5,-53 374.5,-53 374.5,-89"/>
<polyline fill="none" stroke="turquoise" stroke-width="2" points="176.5,-85 180.5,-85 180.5,-81 176.5,-81 "/>
<polyline fill="none" stroke="turquoise" stroke-width="2" points="176.5,-61 180.5,-61 180.5,-57 176.5,-57 "/>
<text text-anchor="middle" x="275.5" y="-67.3" font-family="Times New Roman,serif" font-size="14.00">inject (AlarmBroadcastReceiver)</text>
</g>
<!-- a86d2ba1&#45;c11d&#45;46b0&#45;a0e6&#45;b870d7b08c32 -->
<g id="node3" class="node"><title>a86d2ba1&#45;c11d&#45;46b0&#45;a0e6&#45;b870d7b08c32</title>
<polygon fill="turquoise" stroke="turquoise" points="604.5,-129 410.5,-129 410.5,-93 604.5,-93 604.5,-129"/>
<text text-anchor="middle" x="507.5" y="-107.3" font-family="Times New Roman,serif" font-size="14.00">LoadUserSessionSyncUseCase</text>
</g>
<!-- 78431175&#45;a6d1&#45;4c01&#45;a705&#45;259115785fbe&#45;&gt;a86d2ba1&#45;c11d&#45;46b0&#45;a0e6&#45;b870d7b08c32 -->
<g id="edge1" class="edge"><title>78431175&#45;a6d1&#45;4c01&#45;a705&#45;259115785fbe&#45;&gt;a86d2ba1&#45;c11d&#45;46b0&#45;a0e6&#45;b870d7b08c32</title>
<path fill="none" stroke="black" d="M374.708,-88.0796C383.22,-89.56 391.858,-91.0623 400.429,-92.5529"/>
<polygon fill="black" stroke="black" points="399.997,-96.0303 410.449,-94.2955 401.197,-89.1338 399.997,-96.0303"/>
</g>
<!-- ff637835&#45;be60&#45;4eb6&#45;aadd&#45;8c1fa87e9163 -->
<g id="node4" class="node"><title>ff637835&#45;be60&#45;4eb6&#45;aadd&#45;8c1fa87e9163</title>
<polygon fill="turquoise" stroke="turquoise" points="591,-75 424,-75 424,-39 591,-39 591,-75"/>
<text text-anchor="middle" x="507.5" y="-53.3" font-family="Times New Roman,serif" font-size="14.00">LoadSessionSyncUseCase</text>
</g>
<!-- 78431175&#45;a6d1&#45;4c01&#45;a705&#45;259115785fbe&#45;&gt;ff637835&#45;be60&#45;4eb6&#45;aadd&#45;8c1fa87e9163 -->
<g id="edge2" class="edge"><title>78431175&#45;a6d1&#45;4c01&#45;a705&#45;259115785fbe&#45;&gt;ff637835&#45;be60&#45;4eb6&#45;aadd&#45;8c1fa87e9163</title>
<path fill="none" stroke="black" d="M374.708,-65.0221C387.618,-64.2363 400.816,-63.4329 413.633,-62.6528"/>
<polygon fill="black" stroke="black" points="414.049,-66.134 423.818,-62.0328 413.623,-59.147 414.049,-66.134"/>
</g>
<!-- 7ba8b652&#45;1707&#45;4a71&#45;bceb&#45;83c3e51fc201 -->
</g>
</svg>
